<?xml version="1.0" encoding="UTF-8" standalone="no"?>
<!-- Created with Inkscape (http://www.inkscape.org/) -->

<svg
   xmlns:dc="http://purl.org/dc/elements/1.1/"
   xmlns:cc="http://creativecommons.org/ns#"
   xmlns:rdf="http://www.w3.org/1999/02/22-rdf-syntax-ns#"
   xmlns:svg="http://www.w3.org/2000/svg"
   xmlns="http://www.w3.org/2000/svg"
   xmlns:sodipodi="http://sodipodi.sourceforge.net/DTD/sodipodi-0.dtd"
   xmlns:inkscape="http://www.inkscape.org/namespaces/inkscape"
   width="232.56351"
   height="329.83273"
   id="svg2"
   version="1.1"
   inkscape:version="0.48.4 r9939"
   sodipodi:docname="RayCircleIntersection.svg">
  <sodipodi:namedview
     id="base"
     pagecolor="#ffffff"
     bordercolor="#666666"
     borderopacity="1.0"
     inkscape:pageopacity="0.0"
     inkscape:pageshadow="2"
     inkscape:zoom="0.95293443"
     inkscape:cx="291.24429"
     inkscape:cy="160.93048"
     inkscape:document-units="px"
     inkscape:current-layer="layer1"
     showgrid="false"
     inkscape:window-width="2048"
     inkscape:window-height="1074"
     inkscape:window-x="0"
     inkscape:window-y="0"
     inkscape:window-maximized="1"
     fit-margin-top="0"
     fit-margin-left="0"
     fit-margin-right="0"
     fit-margin-bottom="0" />
  <defs
     id="defs4">
    <marker
       inkscape:stockid="Arrow1Lend"
       orient="auto"
       refY="0"
       refX="0"
       id="Arrow1Lend"
       style="overflow:visible">
      <path
         id="path3782"
         d="M 0,0 5,-5 -12.5,0 5,5 0,0 z"
         style="fill-rule:evenodd;stroke:#000000;stroke-width:1pt"
         transform="matrix(-0.8,0,0,-0.8,-10,0)"
         inkscape:connector-curvature="0" />
    </marker>
    <marker
       inkscape:stockid="Arrow1Lend"
       orient="auto"
       refY="0"
       refX="0"
       id="Arrow1Lend-9"
       style="overflow:visible">
      <path
         id="path3782-9"
         d="M 0,0 5,-5 -12.5,0 5,5 0,0 z"
         style="fill-rule:evenodd;stroke:#000000;stroke-width:1pt"
         transform="matrix(-0.8,0,0,-0.8,-10,0)"
         inkscape:connector-curvature="0" />
    </marker>
  </defs>
  <metadata
     id="metadata7">
    <rdf:RDF>
      <cc:Work
         rdf:about="">
        <dc:format>image/svg+xml</dc:format>
        <dc:type
           rdf:resource="http://purl.org/dc/dcmitype/StillImage" />
        <dc:title />
      </cc:Work>
    </rdf:RDF>
  </metadata>
  <g
     inkscape:label="Layer 1"
     inkscape:groupmode="layer"
     id="layer1"
     transform="translate(-356.1788,-423.4521)">
    <path
       sodipodi:type="arc"
       style="fill:none;stroke:#000000;stroke-opacity:1"
       id="path2985"
       sodipodi:cx="390"
       sodipodi:cy="588.07648"
       sodipodi:rx="135.71428"
       sodipodi:ry="135.71428"
       d="m 390,452.3622 c 74.95293,0 135.71428,60.76135 135.71428,135.71428 0,74.95292 -60.76135,135.71427 -135.71428,135.71428 l 0,-135.71428 z"
       sodipodi:start="4.712389"
       sodipodi:end="7.8539816" />
    <path
       transform="matrix(0.10854741,0,0,0.10854741,347.52365,520.52799)"
       sodipodi:type="arc"
       style="fill:none;stroke:#000000;stroke-width:9.21256447;stroke-miterlimit:4;stroke-opacity:1;stroke-dasharray:none"
       id="path2985-9"
       sodipodi:cx="390"
       sodipodi:cy="588.07648"
       sodipodi:rx="135.71428"
       sodipodi:ry="135.71428"
       d="m 525.71428,588.07648 c 0,74.95292 -60.76135,135.71428 -135.71428,135.71428 -74.95293,0 -135.71428,-60.76136 -135.71428,-135.71428 0,-74.95293 60.76135,-135.71428 135.71428,-135.71428 74.95293,0 135.71428,60.76135 135.71428,135.71428 z" />
    <path
       style="fill:none;stroke:#000000;stroke-width:1px;stroke-linecap:butt;stroke-linejoin:miter;stroke-opacity:1;marker-end:url(#Arrow1Lend)"
       d="m 390,584.50504 170.71429,0"
       id="path3773"
       inkscape:connector-curvature="0" />
    <g
       transform="matrix(0.5,0,0,0.5,-182.49245,542.20116)"
       id="g4229">
      <g
         style="font-style:normal;font-variant:normal;font-weight:normal;font-stretch:normal;letter-spacing:normal;word-spacing:normal;text-anchor:start;fill:none;stroke:#000000;stroke-linecap:butt;stroke-linejoin:miter;stroke-miterlimit:10.43299961;stroke-opacity:1;stroke-dasharray:none;stroke-dashoffset:0"
         id="content"
         transform="matrix(1.0629921,0,0,-1.0629921,-186.02362,789.27165)"
         xml:space="preserve"
         stroke-miterlimit="10.433"
         font-style="normal"
         font-variant="normal"
         font-weight="normal"
         font-stretch="normal"
         font-size-adjust="none"
         letter-spacing="normal"
         word-spacing="normal"><path
           style="fill:#000000;stroke-width:0"
           inkscape:connector-curvature="0"
           d="m 1217.2,357.89 0.2,0.01 0.1,0 0.2,0 0.1,0.01 0.1,0 0,0.01 0.1,0.01 0.1,0.01 0.1,0.01 0,0.01 0.1,0.02 0.1,0.02 0,0.02 0.1,0.02 0,0.03 0.1,0.03 0,0.04 0.1,0.04 0,0.04 0.1,0.05 0,0.05 0,0.02 0.1,0.03 0,0.03 0,0.03 0,0.03 0,0.04 0,0.03 0,0.03 0,0.04 0.1,0.04 0,0.04 0,0.04 0,0.04 0,0.04 0,0.05 0,0.04 c 0,1 -0.9,1 -1.8,1 h -26.9 c -0.9,0 -1.8,0 -1.8,-1 0,-1 0.9,-1 1.8,-1 z"
           id="path4232" /><path
           style="fill:#000000;stroke-width:0"
           inkscape:connector-curvature="0"
           d="m 1241.4,362.29 v -1.6 c 0,-11.65 -5.1,-13.95 -8,-13.95 -0.9,0 -3.6,0.11 -4.9,1.8 2.2,0 2.6,1.43 2.6,2.29 0,1.53 -1.2,2.28 -2.3,2.28 -0.8,0 -2.3,-0.43 -2.3,-2.39 0,-3.33 2.7,-5.37 6.9,-5.37 6.4,0 12.5,6.76 12.5,17.48 0,13.41 -5.7,16.8 -10.1,16.8 -2.8,0 -5.2,-0.91 -7.4,-3.14 -2,-2.25 -3.2,-4.35 -3.2,-8.08 0,-6.22 4.4,-11.11 10,-11.11 l 0.1,1.14 c -0.8,0 -3.1,0 -4.7,3.14 -0.9,1.85 -0.9,4.35 -0.9,6.78 0,2.69 0,5.03 1.1,6.88 1.3,2.48 3.2,3.14 5,3.14 2.3,0 3.9,-1.7 4.8,-3.94 0.5,-1.59 0.7,-4.73 0.7,-7.03 0,-4.12 -1.7,-8.97 -6,-8.97 h 0 l -0.1,-1.14 c 3,0 5.1,2.09 6.2,4.99 z"
           id="path4234" /><path
           style="fill:#000000;stroke-width:0"
           inkscape:connector-curvature="0"
           d="m 1271,362.38 0,0.75 0,0.74 0,0.75 0,0.74 -0.1,0.75 0,0.74 -0.1,0.74 -0.1,0.73 -0.1,0.74 -0.2,0.72 -0.1,0.73 -0.2,0.71 -0.2,0.72 -0.3,0.7 -0.2,0.7 -0.2,0.35 -0.2,0.35 c -2.2,4.79 -6.3,5.59 -8.4,5.59 -3,0 -6.7,-1.3 -8.7,-5.94 -1.6,-3.44 -1.8,-7.33 -1.8,-11.31 0,-3.74 0.1,-8.22 2.2,-12 2.1,-4.03 5.8,-5.03 8.2,-5.03 v 1.09 c -1.9,0 -4.9,1.25 -5.8,6.03 -0.5,2.99 -0.5,7.57 -0.5,10.52 0,3.19 0,6.47 0.4,9.15 0.9,5.94 4.7,6.38 5.9,6.38 1.7,0 5,-0.89 5.9,-5.83 0.5,-2.78 0.5,-6.58 0.5,-9.7 0,-3.75 0,-7.13 -0.6,-10.31 -0.7,-4.74 -3.5,-6.24 -5.8,-6.24 h 0 v -1.09 c 2.7,0 6.5,1.04 8.7,5.78 1.6,3.44 1.8,7.31 1.8,11.25 z"
           id="path4236" /><path
           style="fill:#000000;stroke-width:0"
           inkscape:connector-curvature="0"
           d="m 1290.8,375.68 -0.1,0.39 0,0.39 0,0.38 -0.1,0.37 -0.1,0.36 -0.1,0.36 -0.1,0.35 -0.1,0.34 -0.2,0.34 -0.2,0.32 -0.1,0.31 -0.2,0.31 -0.2,0.29 -0.3,0.28 -0.2,0.27 -0.3,0.26 -0.2,0.24 -0.3,0.24 -0.3,0.22 -0.3,0.2 -0.3,0.2 -0.3,0.17 -0.3,0.17 -0.3,0.15 -0.4,0.13 -0.3,0.11 -0.4,0.1 -0.3,0.08 -0.4,0.07 -0.4,0.05 -0.4,0.02 -0.4,0.01 c -4.1,0 -7.4,-3.37 -7.4,-7.45 l 1.7,-0.03 c 0,3.23 2.6,5.78 5.7,5.78 3.3,0 5.8,-2.66 5.8,-5.75 0,-3.25 -2.6,-5.78 -5.8,-5.78 h 0 c -3.2,0 -5.7,2.64 -5.7,5.75 l -1.7,0.03 c 0,-4.22 3.3,-7.5 7.4,-7.5 4.2,0 7.6,3.39 7.6,7.47 z"
           id="path4238" /></g>    </g>
    <g
       id="g4270"
       transform="matrix(0.5,0,0,0.5,-169.89435,232.4643)">
      <g
         word-spacing="normal"
         letter-spacing="normal"
         font-size-adjust="none"
         font-stretch="normal"
         font-weight="normal"
         font-variant="normal"
         font-style="normal"
         stroke-miterlimit="10.433"
         xml:space="preserve"
         transform="matrix(1.0629921,0,0,-1.0629921,-186.02362,789.27165)"
         id="g4272"
         style="font-style:normal;font-variant:normal;font-weight:normal;font-stretch:normal;letter-spacing:normal;word-spacing:normal;text-anchor:start;fill:none;stroke:#000000;stroke-linecap:butt;stroke-linejoin:miter;stroke-miterlimit:10.43299961;stroke-opacity:1;stroke-dasharray:none;stroke-dashoffset:0"><path
           id="path4274"
           d="m 1222,362.29 v -1.6 c 0,-11.65 -5.2,-13.95 -8.1,-13.95 -0.8,0 -3.5,0.11 -4.8,1.8 2.1,0 2.5,1.43 2.5,2.29 0,1.53 -1.2,2.28 -2.3,2.28 -0.7,0 -2.2,-0.43 -2.2,-2.39 0,-3.33 2.7,-5.37 6.9,-5.37 6.4,0 12.5,6.76 12.5,17.48 0,13.41 -5.7,16.8 -10.2,16.8 -2.7,0 -5.2,-0.91 -7.3,-3.14 -2.1,-2.25 -3.2,-4.35 -3.2,-8.08 0,-6.22 4.4,-11.11 10,-11.11 l 0,1.14 c -0.8,0 -3.1,0 -4.6,3.14 -0.9,1.85 -0.9,4.35 -0.9,6.78 0,2.69 0,5.03 1,6.88 1.4,2.48 3.3,3.14 5,3.14 2.3,0 4,-1.7 4.8,-3.94 0.6,-1.59 0.8,-4.73 0.8,-7.03 0,-4.12 -1.7,-8.97 -6.1,-8.97 h 0 l 0,-1.14 c 3,0 5.1,2.09 6.2,4.99 z"
           inkscape:connector-curvature="0"
           style="fill:#000000;stroke-width:0" /><path
           id="path4276"
           d="m 1251.6,362.38 0,0.75 0,0.74 0,0.75 -0.1,0.74 0,0.75 -0.1,0.74 0,0.74 -0.1,0.73 -0.2,0.74 -0.1,0.72 -0.2,0.73 -0.1,0.71 -0.3,0.72 -0.2,0.7 -0.3,0.7 -0.1,0.35 -0.2,0.35 c -2.3,4.79 -6.4,5.59 -8.5,5.59 -3,0 -6.6,-1.3 -8.6,-5.94 -1.6,-3.44 -1.9,-7.33 -1.9,-11.31 0,-3.74 0.2,-8.22 2.3,-12 2.1,-4.03 5.7,-5.03 8.2,-5.03 v 1.09 c -2,0 -4.9,1.25 -5.8,6.03 -0.5,2.99 -0.5,7.57 -0.5,10.52 0,3.19 0,6.47 0.4,9.15 0.9,5.94 4.6,6.38 5.9,6.38 1.6,0 4.9,-0.89 5.9,-5.83 0.5,-2.78 0.5,-6.58 0.5,-9.7 0,-3.75 0,-7.13 -0.6,-10.31 -0.7,-4.74 -3.6,-6.24 -5.8,-6.24 h 0 v -1.09 c 2.7,0 6.5,1.04 8.7,5.78 1.5,3.44 1.8,7.31 1.8,11.25 z"
           inkscape:connector-curvature="0"
           style="fill:#000000;stroke-width:0" /><path
           id="path4278"
           d="m 1271.3,375.68 0,0.39 0,0.39 -0.1,0.38 0,0.37 -0.1,0.36 -0.1,0.36 -0.1,0.35 -0.2,0.34 -0.1,0.34 -0.2,0.32 -0.2,0.31 -0.2,0.31 -0.2,0.29 -0.2,0.28 -0.2,0.27 -0.3,0.26 -0.3,0.24 -0.2,0.24 -0.3,0.22 -0.3,0.2 -0.3,0.2 -0.3,0.17 -0.4,0.17 -0.3,0.15 -0.3,0.13 -0.4,0.11 -0.3,0.1 -0.4,0.08 -0.4,0.07 -0.3,0.05 -0.4,0.02 -0.4,0.01 c -4.2,0 -7.5,-3.37 -7.5,-7.45 l 1.7,-0.03 c 0,3.23 2.6,5.78 5.8,5.78 3.3,0 5.8,-2.66 5.8,-5.75 0,-3.25 -2.6,-5.78 -5.8,-5.78 h 0 c -3.2,0 -5.8,2.64 -5.8,5.75 l -1.7,0.03 c 0,-4.22 3.4,-7.5 7.5,-7.5 4.2,0 7.5,3.39 7.5,7.47 z"
           inkscape:connector-curvature="0"
           style="fill:#000000;stroke-width:0" /></g>    </g>
    <g
       transform="matrix(0.5,0,0,0.5,-130.14073,242.97636)"
       id="g4320">
      <g
         style="font-style:normal;font-variant:normal;font-weight:normal;font-stretch:normal;letter-spacing:normal;word-spacing:normal;text-anchor:start;fill:none;stroke:#000000;stroke-linecap:butt;stroke-linejoin:miter;stroke-miterlimit:10.43299961;stroke-opacity:1;stroke-dasharray:none;stroke-dashoffset:0"
         id="g4322"
         transform="matrix(1.0629921,0,0,-1.0629921,-186.02362,789.27165)"
         xml:space="preserve"
         stroke-miterlimit="10.433"
         font-style="normal"
         font-variant="normal"
         font-weight="normal"
         font-stretch="normal"
         font-size-adjust="none"
         letter-spacing="normal"
         word-spacing="normal"><path
           style="fill:#000000;stroke-width:0"
           inkscape:connector-curvature="0"
           d="m 1232.6,349.38 0,-0.07 0,-0.08 -0.1,-0.07 0,-0.08 0,-0.16 0,-0.16 -0.1,-0.16 0,-0.16 -0.1,-0.16 0,-0.16 0,-0.08 0,-0.07 0,-0.07 -0.1,-0.07 0,-0.07 0,-0.07 0,-0.06 0,-0.06 0,-0.05 0,-0.06 0,-0.04 0,-0.05 -0.1,-0.04 0,-0.03 0,-0.04 0,-0.02 c 0,-0.89 0.7,-1.35 1.5,-1.35 0.6,0 1.5,0.4 1.8,1.4 0.1,0.2 1.8,6.98 2,7.87 0.4,1.64 1.3,5.13 1.6,6.48 0.2,0.65 1.6,2.99 2.8,4.08 0.4,0.35 1.8,1.64 4,1.64 1.3,0 2,-0.59 2.1,-0.59 -1.5,-0.25 -2.6,-1.45 -2.6,-2.73 0,-0.8 0.5,-1.75 1.9,-1.75 1.3,0 2.7,1.14 2.7,2.93 0,1.75 -1.6,3.24 -4.1,3.24 -3.3,0 -5.4,-2.44 -6.4,-3.83 -0.4,2.23 -2.2,3.83 -4.5,3.83 -2.3,0 -3.3,-1.94 -3.7,-2.83 -0.9,-1.7 -1.6,-4.69 -1.6,-4.84 0,-0.5 0.5,-0.5 0.6,-0.5 0.6,0 0.6,0.06 0.9,1.15 0.8,3.53 1.8,5.92 3.6,5.92 0.9,0 1.6,-0.39 1.6,-2.28 0,-1.04 -0.2,-1.61 -0.8,-4.19 z"
           id="path4324" /></g>    </g>
    <path
       inkscape:connector-curvature="0"
       id="path4348"
       d="M 389.42965,585.15078 513.55827,450.02944"
       style="fill:none;stroke:#000000;stroke-width:0.94857264;stroke-linecap:butt;stroke-linejoin:miter;stroke-miterlimit:4;stroke-opacity:1;stroke-dasharray:none;marker-end:url(#Arrow1Lend)" />
    <rect
       style="fill:none;stroke:#000000;stroke-width:1;stroke-miterlimit:4;stroke-opacity:1;stroke-dasharray:none;stroke-dashoffset:0"
       id="rect4591"
       width="15.714286"
       height="15.714286"
       x="520.72845"
       y="478.34204" />
    <rect
       style="fill:none;stroke:#000000;stroke-width:1;stroke-miterlimit:4;stroke-opacity:1;stroke-dasharray:none;stroke-dashoffset:0"
       id="rect4591-5"
       width="15.714286"
       height="15.714286"
       x="520.78571"
       y="510.00473" />
    <rect
       style="fill:#9cff00;fill-opacity:0.31372549;stroke:#000000;stroke-width:1;stroke-miterlimit:4;stroke-opacity:1;stroke-dasharray:none;stroke-dashoffset:0"
       id="rect4591-51"
       width="15.714286"
       height="15.714286"
       x="489.22598"
       y="509.95114" />
    <rect
       style="fill:none;stroke:#000000;stroke-width:1;stroke-miterlimit:4;stroke-opacity:1;stroke-dasharray:none;stroke-dashoffset:0"
       id="rect4591-5-1"
       width="15.714286"
       height="15.714286"
       x="536.5"
       y="494.2052" />
    <rect
       style="fill:none;stroke:#000000;stroke-width:1;stroke-miterlimit:4;stroke-opacity:1;stroke-dasharray:none;stroke-dashoffset:0"
       id="rect4591-42"
       width="15.714286"
       height="15.714286"
       x="505.09787"
       y="494.23126" />
    <rect
       style="fill:none;stroke:#000000;stroke-width:1;stroke-miterlimit:4;stroke-opacity:1;stroke-dasharray:none;stroke-dashoffset:0"
       id="rect4591-41"
       width="15.714286"
       height="15.714286"
       x="489.3251"
       y="478.35959" />
    <rect
       style="fill:#9cff00;fill-opacity:0.31372549;stroke:#000000;stroke-width:1;stroke-miterlimit:4;stroke-opacity:1;stroke-dasharray:none;stroke-dashoffset:0"
       id="rect4591-51-8"
       width="15.714286"
       height="15.714286"
       x="473.51523"
       y="494.21762" />
    <rect
       style="fill:#9cff00;fill-opacity:0.31372549;stroke:#000000;stroke-width:1;stroke-miterlimit:4;stroke-opacity:1;stroke-dasharray:none;stroke-dashoffset:0"
       id="rect4591-51-8-8"
       width="15.714286"
       height="15.714286"
       x="505.01691"
       y="525.6488" />
    <rect
       style="fill:#0000ff;fill-opacity:0.54639175;stroke:#000000;stroke-width:1;stroke-miterlimit:4;stroke-opacity:1;stroke-dasharray:none;stroke-dashoffset:0"
       id="rect4591-51-8-5"
       width="15.714286"
       height="15.714286"
       x="457.70047"
       y="494.25415" />
    <rect
       style="fill:#9cff00;fill-opacity:0.31372549;stroke:#000000;stroke-width:1;stroke-miterlimit:4;stroke-opacity:1;stroke-dasharray:none;stroke-dashoffset:0"
       id="rect4591-51-8-5-2"
       width="15.714286"
       height="15.714286"
       x="441.89255"
       y="494.21289" />
    <rect
       style="fill:#9cff00;fill-opacity:0.31372549;stroke:#000000;stroke-width:1;stroke-miterlimit:4;stroke-opacity:1;stroke-dasharray:none;stroke-dashoffset:0"
       id="rect4591-51-8-6"
       width="15.714286"
       height="15.714286"
       x="457.52194"
       y="478.36032" />
    <rect
       style="fill:#ff3c00;fill-opacity:0.31372549;stroke:#000000;stroke-width:1;stroke-miterlimit:4;stroke-opacity:1;stroke-dasharray:none;stroke-dashoffset:0"
       id="rect4591-51-8-5-6"
       width="15.714286"
       height="15.714286"
       x="473.47562"
       y="478.36032" />
    <rect
       style="fill:#9cff00;fill-opacity:0.31372549;stroke:#000000;stroke-width:1;stroke-miterlimit:4;stroke-opacity:1;stroke-dasharray:none;stroke-dashoffset:0"
       id="rect4591-51-9"
       width="15.714286"
       height="15.714286"
       x="489.12201"
       y="494.06473" />
    <rect
       style="fill:#9cff00;fill-opacity:0.31372549;stroke:#000000;stroke-width:1;stroke-miterlimit:4;stroke-opacity:1;stroke-dasharray:none;stroke-dashoffset:0"
       id="rect4591-51-9-9"
       width="15.714286"
       height="15.714286"
       x="505.09821"
       y="509.88721" />
    <path
       inkscape:connector-curvature="0"
       id="path4348-2"
       d="m 389.95183,584.65222 76.53721,-83.31527"
       style="fill:none;stroke:#000000;stroke-width:1;stroke-linecap:butt;stroke-linejoin:miter;stroke-miterlimit:4;stroke-opacity:1;stroke-dasharray:none;marker-end:url(#Arrow1Lend)" />
    <g
       id="g5615"
       transform="matrix(2,0,0,2,-193.59282,284.80622)">
      <g
         word-spacing="normal"
         letter-spacing="normal"
         font-size-adjust="none"
         font-stretch="normal"
         font-weight="normal"
         font-variant="normal"
         font-style="normal"
         stroke-miterlimit="10.433"
         xml:space="preserve"
         transform="matrix(0.29336251,0,0,-0.29336251,-51.33844,247.37455)"
         id="g5617"
         style="font-style:normal;font-variant:normal;font-weight:normal;font-stretch:normal;letter-spacing:normal;word-spacing:normal;text-anchor:start;fill:none;stroke:#000000;stroke-linecap:butt;stroke-linejoin:miter;stroke-miterlimit:10.43299961;stroke-opacity:1;stroke-dasharray:none;stroke-dashoffset:0"><path
           id="path5619"
           d="m 1234.8,379.82 0,0 0,0.01 0,0 0,0.01 0,0.01 0,0.01 0,0.01 0,0.01 0.1,0.02 0,0.02 0,0.02 0,0.03 0,0.02 0,0.03 0,0.03 0,0.02 0,0.03 0,0.03 0,0.06 0,0.06 0,0.03 0,0.03 0.1,0.02 0,0.03 0,0.02 0,0.03 0,0.02 0,0.02 0,0.01 0,0 0,0.01 0,0.01 0,0.01 0,0 0,0.01 0,0.01 0,0 0,0 0,0.01 0,0 c 0,0.05 0,0.5 -0.6,0.5 -0.5,0 -0.5,-0.16 -0.7,-1 l -2.9,-11.5 c -8,-0.25 -15.3,-6.88 -15.3,-13.66 0,-4.73 3.5,-8.67 9.6,-9.01 l 0.2,1.09 c -3,0.14 -6.5,1.89 -6.5,6.88 0,5.98 4.3,12.95 11.7,13.59 l -5.2,-20.47 -0.2,-1.09 c -0.4,-1.55 -0.8,-3.14 -1.2,-4.69 -0.6,-2.34 -1.1,-4.23 -1.1,-4.39 0,-0.48 0.4,-0.55 0.6,-0.55 0.3,0 0.4,0.07 0.5,0.21 0.1,0.09 0.4,1.29 0.6,2 l 1.9,7.42 0.2,1.09 5.2,20.47 c 3.8,-0.19 6.6,-2.48 6.6,-6.87 0,-5.88 -4.3,-13 -11.8,-13.6 l -0.2,-1.09 c 8,0.25 15.2,6.97 15.2,13.64 0,3.94 -2.6,8.53 -9.5,9.03 z"
           inkscape:connector-curvature="0"
           style="fill:#000000;stroke-width:0" /><path
           id="path5621"
           d="m 1253.6,362.02 0,0 0,0.01 0,0 0,0.01 0,0 0,0.01 0,0 0,0.01 0,0.01 0,0 0.1,0.02 0,0.02 0,0.02 0,0.02 0,0.02 0,0.02 0,0.02 0,0.02 0,0.03 0,0.04 0,0.05 0,0.02 0,0.03 0,0.02 0,0.02 0,0.02 0.1,0.02 0,0.01 0,0.02 0,0.01 0,0 0,0.01 0,0.01 0,0 0,0.01 0,0 0,0.01 0,0 0,0 0,0 0,0.01 c 0,0.18 -0.2,0.5 -0.6,0.5 -0.7,0 -3.6,-0.28 -4.4,-0.36 -0.3,-0.03 -0.8,-0.07 -0.8,-0.8 0,-0.48 0.5,-0.48 0.9,-0.48 1.7,0 1.7,-0.25 1.7,-0.54 0,-0.23 -0.1,-0.45 -0.2,-0.76 l -4.9,-19.72 c -0.2,-0.62 -0.2,-0.69 -0.2,-0.77 0,-0.51 0.5,-1.1 1.2,-1.1 0.9,0 1.4,0.68 1.6,1.45 0.1,0.14 1.6,6.28 1.7,6.76 2.5,-0.25 4.5,-1.04 4.5,-2.86 0,-0.17 0,-0.34 -0.1,-0.68 -0.1,-0.53 -0.1,-0.71 -0.1,-1.1 0,-2.47 2,-3.57 3.7,-3.57 3.4,0 4.4,5.29 4.4,5.32 0,0.46 -0.4,0.46 -0.6,0.46 -0.4,0 -0.5,-0.18 -0.7,-0.85 -0.4,-1.5 -1.3,-3.97 -3,-3.97 -1,0 -1.2,0.88 -1.2,1.82 0,0.59 0,0.65 0.2,1.56 0,0.11 0.2,0.7 0.2,1.09 0,3.1 -4.2,3.58 -5.7,3.69 1,0.63 2.3,1.78 2.9,2.3 1.8,1.67 3.5,3.31 5.5,3.31 0.4,0 0.8,-0.11 1.1,-0.45 -1.5,-0.25 -1.8,-1.43 -1.8,-1.96 0,-0.76 0.6,-1.28 1.4,-1.28 0.9,0 2,0.77 2,2.22 0,1.16 -0.9,2.44 -2.7,2.44 -2,0 -3.8,-1.42 -5.6,-3.06 -1.4,-1.39 -2.6,-2.47 -4,-3.07 z"
           inkscape:connector-curvature="0"
           style="fill:#000000;stroke-width:0" /></g>    </g>
    <g
       transform="matrix(2,0,0,2,-158.01963,242.89379)"
       id="g5717">
      <g
         style="font-style:normal;font-variant:normal;font-weight:normal;font-stretch:normal;letter-spacing:normal;word-spacing:normal;text-anchor:start;fill:none;stroke:#000000;stroke-linecap:butt;stroke-linejoin:miter;stroke-miterlimit:10.43299961;stroke-opacity:1;stroke-dasharray:none;stroke-dashoffset:0"
         id="g5719"
         transform="matrix(0.29336251,0,0,-0.29336251,-51.33844,247.37455)"
         xml:space="preserve"
         stroke-miterlimit="10.433"
         font-style="normal"
         font-variant="normal"
         font-weight="normal"
         font-stretch="normal"
         font-size-adjust="none"
         letter-spacing="normal"
         word-spacing="normal"><path
           style="fill:#000000;stroke-width:0"
           inkscape:connector-curvature="0"
           d="m 1221.1,349.38 0,-0.07 -0.1,-0.08 0,-0.07 0,-0.08 0,-0.16 -0.1,-0.16 0,-0.16 0,-0.16 -0.1,-0.16 0,-0.16 0,-0.08 0,-0.07 -0.1,-0.07 0,-0.07 0,-0.07 0,-0.07 0,-0.06 0,-0.06 0,-0.05 -0.1,-0.06 0,-0.04 0,-0.05 0,-0.04 0,-0.03 0,-0.04 0,-0.02 c 0,-0.89 0.7,-1.35 1.5,-1.35 0.6,0 1.5,0.4 1.8,1.4 0.1,0.2 1.8,6.98 2,7.87 0.4,1.64 1.3,5.13 1.6,6.48 0.2,0.65 1.6,2.99 2.8,4.08 0.4,0.35 1.8,1.64 4,1.64 1.3,0 2,-0.59 2,-0.59 -1.4,-0.25 -2.5,-1.45 -2.5,-2.73 0,-0.8 0.5,-1.75 1.9,-1.75 1.3,0 2.7,1.14 2.7,2.93 0,1.75 -1.6,3.24 -4.1,3.24 -3.3,0 -5.5,-2.44 -6.4,-3.83 -0.4,2.23 -2.2,3.83 -4.6,3.83 -2.2,0 -3.2,-1.94 -3.6,-2.83 -0.9,-1.7 -1.6,-4.69 -1.6,-4.84 0,-0.5 0.5,-0.5 0.6,-0.5 0.5,0 0.6,0.06 0.9,1.15 0.8,3.53 1.8,5.92 3.6,5.92 0.9,0 1.6,-0.39 1.6,-2.28 0,-1.04 -0.2,-1.61 -0.8,-4.19 z"
           id="path5721" /><path
           style="fill:#000000;stroke-width:0"
           inkscape:connector-curvature="0"
           d="m 1251.8,375.63 0.3,0.12 0.2,0.11 0.3,0.11 0.2,0.1 0.2,0.1 0.3,0.1 0.2,0.09 0.2,0.09 0.2,0.08 0.2,0.08 0.1,0.08 0.2,0.07 0.2,0.08 0.2,0.07 0.1,0.06 0.2,0.07 0.1,0.06 0.1,0.05 0.2,0.06 0.1,0.06 0.1,0.05 0.2,0.05 0.1,0.05 0.1,0.05 0.1,0.04 0.1,0.05 0.2,0.08 0.2,0.08 0.1,0.08 c 0.7,0.27 1,0.41 1,1.08 0,0.6 -0.4,1.11 -1.1,1.11 -0.2,0 -0.3,0 -0.7,-0.31 l -4.7,-3.17 0.5,5.15 c 0.1,0.63 0,1.5 -1.1,1.5 -0.4,0 -1,-0.28 -1,-1.04 0,-0.32 0.1,-1.36 0.1,-1.71 0.1,-0.59 0.3,-3.11 0.4,-3.9 l -4.7,3.17 c -0.3,0.2 -0.4,0.31 -0.7,0.31 -0.7,0 -1.1,-0.51 -1.1,-1.11 0,-0.7 0.4,-0.87 0.7,-1.01 l 5.3,-2.19 c -2.9,-1.27 -4.2,-1.75 -5.1,-2.17 -0.6,-0.28 -0.9,-0.42 -0.9,-1.08 0,-0.59 0.4,-1.11 1.1,-1.11 0.2,0 0.3,0 0.7,0.31 l 4.7,3.17 -0.5,-5.6 c 0,-0.77 0.6,-1.05 1,-1.05 0.5,0 1.1,0.28 1.1,1.05 0,0.31 -0.1,1.35 -0.2,1.7 0,0.59 -0.3,3.09 -0.3,3.9 l 4.1,-2.79 c 0.9,-0.69 1,-0.69 1.3,-0.69 0.7,0 1.1,0.52 1.1,1.11 0,0.7 -0.4,0.87 -0.7,1.02 z"
           id="path5723" /><path
           style="fill:#000000;stroke-width:0"
           inkscape:connector-curvature="0"
           d="m 1250,357.22 0,0 0,0.01 0,0 0,0.01 0,0 0,0.01 0,0 0,0.01 0,0.01 0,0 0.1,0.02 0,0.02 0,0.02 0,0.02 0,0.02 0,0.02 0,0.02 0,0.02 0,0.03 0,0.04 0,0.05 0,0.02 0,0.03 0,0.02 0,0.02 0,0.02 0.1,0.02 0,0.01 0,0.02 0,0.01 0,0 0,0.01 0,0.01 0,0 0,0.01 0,0 0,0.01 0,0 0,0 0,0 0,0.01 c 0,0.18 -0.2,0.5 -0.6,0.5 -0.7,0 -3.6,-0.29 -4.4,-0.36 -0.3,-0.03 -0.8,-0.07 -0.8,-0.8 0,-0.49 0.5,-0.49 0.9,-0.49 1.7,0 1.7,-0.24 1.7,-0.53 0,-0.23 -0.1,-0.45 -0.2,-0.76 l -4.9,-19.72 c -0.2,-0.63 -0.2,-0.69 -0.2,-0.77 0,-0.51 0.5,-1.11 1.2,-1.11 1,0 1.4,0.69 1.6,1.46 0.1,0.14 1.6,6.28 1.7,6.76 2.5,-0.25 4.5,-1.04 4.5,-2.86 0,-0.17 0,-0.34 -0.1,-0.68 -0.1,-0.53 -0.1,-0.71 -0.1,-1.1 0,-2.47 2,-3.58 3.7,-3.58 3.4,0 4.4,5.3 4.4,5.33 0,0.46 -0.4,0.46 -0.6,0.46 -0.4,0 -0.5,-0.18 -0.7,-0.85 -0.4,-1.5 -1.3,-3.97 -3,-3.97 -1,0 -1.2,0.88 -1.2,1.82 0,0.59 0,0.65 0.2,1.56 0,0.11 0.1,0.7 0.1,1.09 0,3.1 -4.1,3.58 -5.6,3.69 1,0.62 2.3,1.78 2.9,2.3 1.8,1.67 3.5,3.31 5.5,3.31 0.4,0 0.8,-0.11 1.1,-0.45 -1.5,-0.25 -1.8,-1.43 -1.8,-1.96 0,-0.76 0.6,-1.28 1.4,-1.28 0.9,0 2,0.77 2,2.22 0,1.16 -0.9,2.44 -2.7,2.44 -2,0 -3.8,-1.42 -5.6,-3.06 -1.4,-1.4 -2.6,-2.47 -4,-3.07 z"
           id="path5725" /></g>    </g>
    <g
       id="g5846"
       transform="matrix(2,0,0,2,-209.63908,328.34279)">
      <g
         word-spacing="normal"
         letter-spacing="normal"
         font-size-adjust="none"
         font-stretch="normal"
         font-weight="normal"
         font-variant="normal"
         font-style="normal"
         stroke-miterlimit="10.433"
         xml:space="preserve"
         transform="matrix(0.29336251,0,0,-0.29336251,-51.33844,247.37455)"
         id="g5848"
         style="font-style:normal;font-variant:normal;font-weight:normal;font-stretch:normal;letter-spacing:normal;word-spacing:normal;text-anchor:start;fill:none;stroke:#000000;stroke-linecap:butt;stroke-linejoin:miter;stroke-miterlimit:10.43299961;stroke-opacity:1;stroke-dasharray:none;stroke-dashoffset:0"><path
           id="path5850"
           d="m 1226.4,376.63 0.1,0.16 0,0.16 0.1,0.15 0,0.14 0,0.14 0.1,0.13 0,0.12 0.1,0.12 0,0.11 0.1,0.1 0.1,0.09 0,0.1 0.1,0.08 0.1,0.08 0.1,0.07 0.1,0.07 0.1,0.06 0.1,0.06 0.2,0.05 0.1,0.05 0.2,0.05 0.1,0.02 0.1,0.02 0.1,0.01 0.1,0.02 0.1,0.02 0.1,0.01 0.1,0.01 0.1,0.02 0.1,0.01 0.1,0.01 0.2,0.01 0.1,0.01 0.1,0 0.2,0.01 0.1,0.01 0.2,0 0.1,0.01 0.2,0 0.1,0 0.2,0 0.2,0.01 0.2,0 c 1.2,0 1.6,0 1.6,0.95 0,0.59 -0.6,0.59 -0.8,0.59 -1.4,0 -5.1,-0.15 -6.6,-0.15 -1.5,0 -5.1,0.15 -6.6,0.15 -0.3,0 -1,0 -1,-1 0,-0.54 0.5,-0.54 1.4,-0.54 2.1,0 3.4,0 3.4,-0.96 0,-0.25 0,-0.34 -0.1,-0.79 l -6.7,-26.85 c -0.4,-1.84 -0.6,-2.34 -4.5,-2.34 -1.2,0 -1.6,0 -1.6,-1 0,-0.55 0.6,-0.55 0.7,-0.55 1.5,0 5.1,0.16 6.6,0.16 1.5,0 5.2,-0.16 6.6,-0.16 0.4,0 1,0 1,0.95 0,0.6 -0.4,0.6 -1.5,0.6 -0.8,0 -1.1,0 -2.1,0.09 -1,0.11 -1.2,0.3 -1.2,0.85 0,0.4 0.1,0.79 0.2,1.15 z"
           inkscape:connector-curvature="0"
           style="fill:#000000;stroke-width:0" /><path
           id="path5852"
           d="m 1243.4,343.36 4.8,4.84 c 0.9,0.24 1.7,0.24 3.2,0.24 v 1.95 c -1.1,-0.11 -2.2,-0.14 -3.3,-0.14 -1.2,0 -3.6,0.11 -3.9,0.14 v -1.95 c 0.5,0 0.7,-0.06 0.9,-0.21 l -3.2,-3.31 -3.4,3.52 h 0.9 v 1.95 c -0.2,0 -2.9,-0.14 -4.4,-0.14 -1.3,0 -2.6,0.03 -3.9,0.14 v -1.95 h 2.6 l 5.7,-5.96 -5,-5.04 c -0.5,-0.42 -0.5,-0.46 -1.6,-0.53 -0.6,-0.03 -1.8,-0.03 -1.9,-0.03 v -1.96 c 1.1,0.11 2.2,0.14 3.3,0.14 1,0 3.5,-0.11 3.9,-0.14 v 1.96 c -0.5,0 -0.7,0.06 -0.9,0.23 l 3.7,3.77 3.9,-4 h -0.9 v -1.96 c 0,0 2.8,0.14 4.4,0.14 1.3,0 2.6,-0.03 3.9,-0.14 v 1.96 h -2.6 z"
           inkscape:connector-curvature="0"
           style="fill:#000000;stroke-width:0" /><path
           id="path5854"
           d="m 1263.4,362.59 0,0.05 0,0.06 0,0.05 0,0.05 -0.1,0.05 0,0.05 0,0.05 0,0.05 0,0.05 0,0.05 -0.1,0.04 0,0.04 0,0.04 -0.1,0.04 0,0.04 0,0.04 -0.1,0.03 0,0.04 0,0.03 -0.1,0.03 0,0.03 -0.1,0.02 0,0.02 -0.1,0.03 0,0.01 -0.1,0.02 0,0.02 -0.1,0.01 0,0.01 -0.1,0 0,0.01 -0.1,0 c -0.7,0 -1.5,-0.67 -1.5,-1.49 0,-0.7 0.5,-1.07 1,-1.07 0.9,0 1.6,0.75 1.6,1.5 z"
           inkscape:connector-curvature="0"
           style="fill:#000000;stroke-width:0" /><path
           id="path5856"
           d="m 1264.6,350.63 -0.1,0.02 0,0.01 0,0.02 0,0.01 0,0.02 0,0.01 0,0.01 0,0.02 0,0.01 0,0.01 0,0.01 0,0.01 0,0.01 0,0.01 0,0.01 0,0.01 0,0.01 0,0.01 0,0.01 -0.1,0.01 0,0.01 0,0.01 0,0.01 0,0.02 0,0.01 -0.1,0 0,0.01 0,0.01 0,0 -0.1,0.01 0,0 0,0.01 0,0 0,0 -0.1,0 0,0 0,0.01 0,0 0,0 0,0 -0.1,0 0,0 0,0 c -0.4,0 -0.4,-0.1 -0.6,-0.58 -0.4,-1.36 -1.5,-2.78 -2.8,-2.78 -0.5,0 -0.7,0.39 -0.7,0.93 0,0.54 0.1,0.8 0.3,1.29 0.2,0.48 0.4,0.98 0.5,1.34 0.1,0.22 1.1,2.53 1.5,3.44 0.2,0.5 0.3,0.81 0.3,1.23 0,1.2 -1.1,2.2 -2.7,2.2 -2.6,0 -4,-3.18 -4,-3.85 0,-0.36 0.4,-0.36 0.5,-0.36 0.4,0 0.5,0.12 0.6,0.5 0.5,1.76 1.7,2.86 2.8,2.86 0.5,0 0.7,-0.27 0.7,-0.94 0,-0.1 0,-0.42 -0.1,-0.91 -0.2,-0.44 -1.3,-3.11 -1.7,-3.95 -0.1,-0.42 -0.1,-0.47 -0.5,-1.31 -0.1,-0.36 -0.3,-0.71 -0.3,-1.13 0,-1.3 1.3,-2.2 2.8,-2.2 2.6,0 4,3.25 4,3.87 z"
           inkscape:connector-curvature="0"
           style="fill:#000000;stroke-width:0" /><path
           id="path5858"
           d="m 1261.3,334.45 h 3 c 0.5,0 0.5,0.03 0.7,0.12 0.1,0.11 0.2,0.43 0.2,0.58 0,0.42 -0.4,0.42 -0.8,0.42 h -2.8 l 0.5,2.07 c 0.2,0.65 0.5,1.78 0.5,1.92 0,0.42 -0.3,0.87 -0.9,0.87 -0.5,0 -1.1,-0.28 -1.3,-0.95 -0.1,-0.42 0.2,0.75 -1,-3.91 h -2.9 c -0.5,0 -0.9,0 -0.9,-0.7 0,-0.42 0.4,-0.42 0.8,-0.42 h 2.8 l -1.5,-5.84 c -0.1,-0.55 -0.3,-1.33 -0.3,-1.63 0,-1.42 1.3,-2.42 3,-2.42 3.1,0 4.9,3.37 4.9,3.87 0,0.35 -0.4,0.35 -0.5,0.35 -0.4,0 -0.5,-0.1 -0.6,-0.42 -0.8,-1.8 -2.4,-2.94 -3.6,-2.94 -0.8,0 -1.1,0.56 -1.1,1.31 0,0.41 0,0.47 0.1,0.7 z"
           inkscape:connector-curvature="0"
           style="fill:#000000;stroke-width:0" /></g>    </g>
    <g
       transform="matrix(2,0,0,2,-63.707585,252.19309)"
       id="g3093">
      <g
         style="font-style:normal;font-variant:normal;font-weight:normal;font-stretch:normal;letter-spacing:normal;word-spacing:normal;text-anchor:start;fill:none;stroke:#000000;stroke-linecap:butt;stroke-linejoin:miter;stroke-miterlimit:10.43299961;stroke-opacity:1;stroke-dasharray:none;stroke-dashoffset:0"
         id="g3095"
         transform="matrix(0.29336251,0,0,-0.29336251,-51.33844,247.37455)"
         xml:space="preserve"
         stroke-miterlimit="10.433"
         font-style="normal"
         font-variant="normal"
         font-weight="normal"
         font-stretch="normal"
         font-size-adjust="none"
         letter-spacing="normal"
         word-spacing="normal"><path
           style="fill:#000000;stroke-width:0"
           inkscape:connector-curvature="0"
           d="m 1218.8,376.63 0,0.16 0,0.16 0.1,0.15 0,0.14 0.1,0.14 0,0.13 0.1,0.12 0,0.12 0.1,0.11 0,0.1 0.1,0.09 0.1,0.1 0,0.08 0.1,0.08 0.1,0.07 0.1,0.07 0.1,0.06 0.2,0.06 0.1,0.05 0.1,0.05 0.2,0.05 0.1,0.02 0.1,0.02 0.1,0.01 0.1,0.02 0.1,0.02 0.1,0.01 0.1,0.01 0.1,0.02 0.1,0.01 0.2,0.01 0.1,0.01 0.1,0.01 0.1,0 0.2,0.01 0.1,0.01 0.2,0 0.1,0.01 0.2,0 0.2,0 0.1,0 0.2,0.01 0.2,0 c 1.2,0 1.6,0 1.6,0.95 0,0.59 -0.6,0.59 -0.8,0.59 -1.4,0 -5.1,-0.15 -6.5,-0.15 -1.5,0 -5.2,0.15 -6.7,0.15 -0.3,0 -1,0 -1,-1 0,-0.54 0.5,-0.54 1.4,-0.54 2.1,0 3.5,0 3.5,-0.96 0,-0.25 0,-0.34 -0.1,-0.79 l -6.8,-26.85 c -0.4,-1.84 -0.6,-2.34 -4.5,-2.34 -1.1,0 -1.6,0 -1.6,-1 0,-0.55 0.6,-0.55 0.8,-0.55 1.4,0 5,0.16 6.5,0.16 1.5,0 5.2,-0.16 6.7,-0.16 0.4,0 1,0 1,0.95 0,0.6 -0.4,0.6 -1.5,0.6 -0.9,0 -1.2,0 -2.2,0.09 -1,0.11 -1.2,0.3 -1.2,0.85 0,0.4 0.1,0.79 0.2,1.15 z"
           id="path3097" /><path
           style="fill:#000000;stroke-width:0"
           inkscape:connector-curvature="0"
           d="m 1240.5,348.14 0,0.36 -0.1,0.35 0,0.34 -0.1,0.33 0,0.32 -0.1,0.31 -0.1,0.29 -0.1,0.29 -0.2,0.28 -0.1,0.27 -0.2,0.25 -0.1,0.25 -0.2,0.23 -0.2,0.22 -0.2,0.21 -0.2,0.2 -0.2,0.19 -0.3,0.18 -0.2,0.17 -0.2,0.15 -0.3,0.14 -0.3,0.14 -0.2,0.11 -0.3,0.11 -0.3,0.1 -0.3,0.08 -0.3,0.07 -0.3,0.06 -0.3,0.04 -0.3,0.03 -0.3,0.02 -0.3,0.01 -0.1,-0.97 c 1.9,0 3.5,-1.3 3.5,-3.88 0,-0.82 -0.4,-4.28 -1.9,-6.71 -1.4,-2.05 -3.5,-3.18 -5.2,-3.18 h 0 c -1.7,0 -3.5,1.13 -3.5,3.88 0,1.42 0.7,4.84 2,6.83 1.5,2.15 3.6,3.06 5.1,3.06 l 0.1,0.97 c -5.2,0 -10.1,-4.85 -10.1,-9.61 0,-3.49 2.6,-6.09 6.4,-6.09 4.9,0 10,4.59 10,9.6 z"
           id="path3099" /><path
           style="fill:#000000;stroke-width:0"
           inkscape:connector-curvature="0"
           d="m 1250.8,362.02 0,0 0,0.01 0,0 0,0.01 0.1,0 0,0.01 0,0 0,0.01 0,0.01 0,0 0,0.02 0,0.02 0,0.02 0,0.02 0,0.02 0,0.02 0,0.02 0,0.02 0,0.03 0,0.04 0,0.03 0,0.02 0,0.02 0,0.03 0.1,0.02 0,0.02 0,0.02 0,0.02 0,0.01 0,0.02 0,0.01 0,0 0,0.01 0,0.01 0,0 0,0.01 0,0 0,0.01 0,0 0,0 0,0 0,0.01 c 0,0.18 -0.2,0.5 -0.6,0.5 -0.7,0 -3.6,-0.28 -4.4,-0.36 -0.3,-0.03 -0.8,-0.07 -0.8,-0.8 0,-0.48 0.5,-0.48 0.9,-0.48 1.7,0 1.7,-0.25 1.7,-0.54 0,-0.23 -0.4,-1.62 -0.6,-2.43 l -0.8,-3.21 c -0.3,-1.18 -2.2,-8.81 -2.3,-9.26 -0.2,-0.85 -0.2,-1.3 -0.2,-1.7 0,-3.54 2.3,-5.75 5.2,-5.75 l 0,0.96 c -1.7,0 -2.7,1.5 -2.7,3.57 0,1.28 0.3,2.47 1.3,6.4 0.2,0.66 0.2,0.74 0.9,1.5 1.3,1.53 2.9,2.3 4.1,2.3 1.4,0 2.6,-1.02 2.6,-3.38 0,-1.43 -0.8,-4.98 -1.9,-7.01 -0.8,-1.7 -2.5,-3.38 -4.3,-3.38 h 0 l 0,-0.96 c 4.3,0 9,4.73 9,9.89 0,4.07 -2.9,5.81 -5.3,5.81 -1.8,0 -3.3,-1 -4.4,-1.91 z"
           id="path3101" /><path
           style="fill:#000000;stroke-width:0"
           inkscape:connector-curvature="0"
           d="m 1274.5,360.66 0,0.06 0,0.05 -0.1,0.06 0,0.06 0,0.06 0,0.05 0,0.06 0,0.06 0,0.05 -0.1,0.06 0,0.06 0,0.05 -0.1,0.05 0,0.06 0,0.05 -0.1,0.05 0,0.04 -0.1,0.05 0,0.04 -0.1,0.04 0,0.04 -0.1,0.04 -0.1,0.03 0,0.03 -0.1,0.03 -0.1,0.03 0,0.02 -0.1,0.02 -0.1,0.01 -0.1,0.01 0,0.01 -0.1,0 c -1,0 -2,-0.99 -2,-1.92 0,-0.57 0.4,-1.33 1.4,-1.33 0.9,0 2,0.9 2,1.92 z"
           id="path3103" /><path
           style="fill:#000000;stroke-width:0"
           inkscape:connector-curvature="0"
           d="m 1267.1,337.18 -0.1,-0.23 -0.1,-0.22 0,-0.22 -0.1,-0.21 -0.1,-0.22 -0.1,-0.21 -0.1,-0.2 -0.1,-0.2 -0.1,-0.2 -0.1,-0.19 -0.1,-0.18 -0.2,-0.18 -0.1,-0.17 -0.1,-0.17 -0.2,-0.16 -0.1,-0.16 -0.2,-0.14 -0.1,-0.14 -0.2,-0.14 -0.2,-0.12 -0.1,-0.12 -0.2,-0.11 -0.2,-0.09 -0.1,-0.09 -0.2,-0.08 -0.2,-0.07 -0.2,-0.06 -0.2,-0.05 -0.1,-0.04 -0.2,-0.03 -0.2,-0.02 -0.2,-0.01 c -0.5,0 -0.9,0.07 -1.3,0.21 0.9,0.42 1.2,1.25 1.2,1.78 0,0.83 -0.7,1.28 -1.4,1.28 -1,0 -1.9,-0.94 -1.9,-2.05 0,-1.33 1.3,-2.2 3.4,-2.2 2.1,0 6.2,1.25 7.3,5.5 l 3.1,12.48 c 0.1,0.38 0.2,0.69 0.2,1.22 0,1.91 -1.7,3.27 -3.8,3.27 -3.8,0 -6.1,-4.85 -6.1,-5.33 0,-0.45 0.5,-0.45 0.6,-0.45 0.4,0 0.5,0.11 0.7,0.62 0.9,2.03 2.7,4.19 4.7,4.19 0.9,0 1.2,-0.59 1.2,-1.7 0,-0.39 0,-0.88 -0.1,-1.05 z"
           id="path3105" /></g>    </g>
    <g
       id="g3254"
       transform="matrix(2,0,0,2,-175.98348,195.12489)">
      <g
         word-spacing="normal"
         letter-spacing="normal"
         font-size-adjust="none"
         font-stretch="normal"
         font-weight="normal"
         font-variant="normal"
         font-style="normal"
         stroke-miterlimit="10.433"
         xml:space="preserve"
         transform="matrix(0.33223359,0,0,-0.33223359,-58.140878,247.37455)"
         id="g3256"
         style="font-style:normal;font-variant:normal;font-weight:normal;font-stretch:normal;letter-spacing:normal;word-spacing:normal;text-anchor:start;fill:none;stroke:#000000;stroke-linecap:butt;stroke-linejoin:miter;stroke-miterlimit:10.43299961;stroke-opacity:1;stroke-dasharray:none;stroke-dashoffset:0"><path
           id="path3258"
           d="m 1221.1,349.38 0,-0.07 -0.1,-0.08 0,-0.07 0,-0.08 0,-0.16 -0.1,-0.16 0,-0.16 0,-0.16 -0.1,-0.16 0,-0.16 0,-0.08 0,-0.07 -0.1,-0.07 0,-0.07 0,-0.07 0,-0.07 0,-0.06 0,-0.06 0,-0.05 -0.1,-0.06 0,-0.04 0,-0.05 0,-0.04 0,-0.03 0,-0.04 0,-0.02 c 0,-0.89 0.7,-1.35 1.5,-1.35 0.6,0 1.5,0.4 1.8,1.4 0.1,0.2 1.8,6.98 2,7.87 0.4,1.64 1.3,5.13 1.6,6.48 0.2,0.65 1.6,2.99 2.8,4.08 0.4,0.35 1.8,1.64 4,1.64 1.3,0 2,-0.59 2,-0.59 -1.4,-0.25 -2.5,-1.45 -2.5,-2.73 0,-0.8 0.5,-1.75 1.9,-1.75 1.3,0 2.7,1.14 2.7,2.93 0,1.75 -1.6,3.24 -4.1,3.24 -3.3,0 -5.5,-2.44 -6.4,-3.83 -0.4,2.23 -2.2,3.83 -4.6,3.83 -2.2,0 -3.2,-1.94 -3.6,-2.83 -0.9,-1.7 -1.6,-4.69 -1.6,-4.84 0,-0.5 0.5,-0.5 0.6,-0.5 0.5,0 0.6,0.06 0.9,1.15 0.8,3.53 1.8,5.92 3.6,5.92 0.9,0 1.6,-0.39 1.6,-2.28 0,-1.04 -0.2,-1.61 -0.8,-4.19 z"
           inkscape:connector-curvature="0"
           style="fill:#000000;stroke-width:0" /><path
           id="path3260"
           d="m 1255.9,392.1 0,0.06 0,0.05 -0.1,0.06 0,0.06 0,0.06 0,0.05 0,0.06 0,0.06 0,0.06 -0.1,0.05 0,0.06 0,0.05 -0.1,0.06 0,0.05 0,0.05 -0.1,0.05 0,0.05 -0.1,0.04 0,0.04 -0.1,0.05 0,0.04 -0.1,0.03 -0.1,0.04 0,0.03 -0.1,0.02 -0.1,0.03 0,0.02 -0.1,0.02 -0.1,0.01 -0.1,0.01 -0.1,0.01 0,0 c -1.1,0 -2,-0.98 -2,-1.92 0,-0.56 0.4,-1.33 1.4,-1.33 0.9,0 2,0.91 2,1.92 z"
           inkscape:connector-curvature="0"
           style="fill:#000000;stroke-width:0" /><path
           id="path3262"
           d="m 1248.5,368.62 -0.1,-0.23 -0.1,-0.22 0,-0.22 -0.1,-0.21 -0.1,-0.22 -0.1,-0.2 -0.1,-0.21 -0.1,-0.2 -0.1,-0.19 -0.1,-0.19 -0.1,-0.19 -0.2,-0.18 -0.1,-0.17 -0.1,-0.17 -0.2,-0.16 -0.1,-0.16 -0.2,-0.14 -0.1,-0.14 -0.2,-0.14 -0.2,-0.12 -0.1,-0.12 -0.2,-0.1 -0.2,-0.1 -0.1,-0.09 -0.2,-0.08 -0.2,-0.07 -0.2,-0.06 -0.2,-0.05 -0.1,-0.04 -0.2,-0.03 -0.2,-0.02 -0.2,0 c -0.5,0 -0.9,0.06 -1.3,0.2 0.9,0.42 1.2,1.25 1.2,1.78 0,0.83 -0.7,1.28 -1.4,1.28 -1,0 -1.9,-0.94 -1.9,-2.05 0,-1.32 1.3,-2.2 3.4,-2.2 2.1,0 6.2,1.25 7.3,5.5 l 3.1,12.49 c 0.1,0.37 0.2,0.68 0.2,1.21 0,1.91 -1.7,3.27 -3.8,3.27 -3.8,0 -6,-4.84 -6,-5.33 0,-0.45 0.4,-0.45 0.5,-0.45 0.5,0 0.5,0.11 0.7,0.62 0.9,2.03 2.7,4.19 4.7,4.19 0.9,0 1.2,-0.59 1.2,-1.7 0,-0.39 0,-0.88 -0.1,-1.05 z"
           inkscape:connector-curvature="0"
           style="fill:#000000;stroke-width:0" /><path
           id="path3264"
           d="m 1250,354.46 0,0 0,0.01 0,0 0,0.01 0,0 0,0.01 0,0 0,0.01 0,0.01 0,0.01 0.1,0.01 0,0.02 0,0.02 0,0.02 0,0.02 0,0.02 0,0.02 0,0.03 0,0.02 0,0.05 0,0.04 0,0.03 0,0.02 0,0.02 0,0.02 0,0.02 0.1,0.02 0,0.02 0,0.01 0,0.01 0,0.01 0,0 0,0.01 0,0 0,0.01 0,0 0,0.01 0,0 0,0 0,0.01 0,0 c 0,0.19 -0.2,0.5 -0.6,0.5 -0.7,0 -3.6,-0.28 -4.4,-0.36 -0.3,-0.03 -0.8,-0.06 -0.8,-0.8 0,-0.48 0.5,-0.48 0.9,-0.48 1.7,0 1.7,-0.25 1.7,-0.53 0,-0.24 -0.1,-0.46 -0.2,-0.77 l -4.9,-19.72 c -0.2,-0.62 -0.2,-0.69 -0.2,-0.76 0,-0.52 0.5,-1.11 1.2,-1.11 1,0 1.4,0.68 1.6,1.45 0.1,0.14 1.6,6.28 1.7,6.77 2.5,-0.25 4.5,-1.05 4.5,-2.86 0,-0.18 0,-0.35 -0.1,-0.69 -0.1,-0.53 -0.1,-0.7 -0.1,-1.1 0,-2.46 2,-3.57 3.7,-3.57 3.4,0 4.4,5.29 4.4,5.32 0,0.46 -0.4,0.46 -0.6,0.46 -0.4,0 -0.5,-0.17 -0.7,-0.85 -0.4,-1.5 -1.3,-3.96 -3,-3.96 -1,0 -1.2,0.87 -1.2,1.81 0,0.59 0,0.65 0.2,1.56 0,0.11 0.1,0.7 0.1,1.09 0,3.1 -4.1,3.58 -5.6,3.69 1,0.63 2.3,1.78 2.9,2.3 1.8,1.67 3.5,3.31 5.5,3.31 0.4,0 0.8,-0.11 1.1,-0.45 -1.5,-0.25 -1.8,-1.42 -1.8,-1.96 0,-0.76 0.6,-1.28 1.4,-1.28 0.9,0 2,0.77 2,2.22 0,1.16 -0.9,2.44 -2.7,2.44 -2,0 -3.8,-1.42 -5.6,-3.06 -1.4,-1.39 -2.6,-2.47 -4,-3.07 z"
           inkscape:connector-curvature="0"
           style="fill:#000000;stroke-width:0" /></g>    </g>
  </g>
</svg>
