<?xml version="1.0" encoding="UTF-8" standalone="no"?>
<!-- Created with Inkscape (http://www.inkscape.org/) -->

<svg
   xmlns:dc="http://purl.org/dc/elements/1.1/"
   xmlns:cc="http://creativecommons.org/ns#"
   xmlns:rdf="http://www.w3.org/1999/02/22-rdf-syntax-ns#"
   xmlns:svg="http://www.w3.org/2000/svg"
   xmlns="http://www.w3.org/2000/svg"
   xmlns:sodipodi="http://sodipodi.sourceforge.net/DTD/sodipodi-0.dtd"
   xmlns:inkscape="http://www.inkscape.org/namespaces/inkscape"
   width="58.963242"
   height="52.745426"
   id="svg3301"
   version="1.1"
   inkscape:version="0.48.5 r10040"
   sodipodi:docname="New document 12">
  <defs
     id="defs3303" />
  <sodipodi:namedview
     id="base"
     pagecolor="#ffffff"
     bordercolor="#666666"
     borderopacity="1.0"
     inkscape:pageopacity="0.0"
     inkscape:pageshadow="2"
     inkscape:zoom="0.35"
     inkscape:cx="-235.51639"
     inkscape:cy="-162.18953"
     inkscape:document-units="px"
     inkscape:current-layer="layer1"
     showgrid="false"
     fit-margin-top="0"
     fit-margin-left="0"
     fit-margin-right="0"
     fit-margin-bottom="0"
     inkscape:window-width="1366"
     inkscape:window-height="692"
     inkscape:window-x="0"
     inkscape:window-y="0"
     inkscape:window-maximized="1" />
  <metadata
     id="metadata3306">
    <rdf:RDF>
      <cc:Work
         rdf:about="">
        <dc:format>image/svg+xml</dc:format>
        <dc:type
           rdf:resource="http://purl.org/dc/dcmitype/StillImage" />
        <dc:title></dc:title>
      </cc:Work>
    </rdf:RDF>
  </metadata>
  <g
     inkscape:label="Layer 1"
     inkscape:groupmode="layer"
     id="layer1"
     transform="translate(-610.51639,-317.42723)">
    <g
       id="g3260"
       transform="translate(594.6416,-603.72279)">
      <g
         id="g3086">
        <path
           sodipodi:type="arc"
           style="fill:none;stroke:#000000;stroke-width:2;stroke-miterlimit:4;stroke-opacity:1;stroke-dasharray:none;stroke-dashoffset:0"
           id="path2987"
           sodipodi:cx="28.861355"
           sodipodi:cy="32.926334"
           sodipodi:rx="3.1164842"
           sodipodi:ry="3.1164842"
           d="m 31.977839,32.926334 c 0,1.721187 -1.395297,3.116485 -3.116484,3.116485 -1.721187,0 -3.116484,-1.395298 -3.116484,-3.116485 0,-1.721186 1.395297,-3.116484 3.116484,-3.116484 1.721187,0 3.116484,1.395298 3.116484,3.116484 z"
           transform="translate(-8.8752053,913.8819)" />
        <path
           transform="translate(-8.8752053,892.33752)"
           sodipodi:type="arc"
           style="fill:none;stroke:#000000;stroke-width:2;stroke-miterlimit:4;stroke-opacity:1;stroke-dasharray:none;stroke-dashoffset:0"
           id="path2987-7"
           sodipodi:cx="28.861355"
           sodipodi:cy="32.926334"
           sodipodi:rx="3.1164842"
           sodipodi:ry="3.1164842"
           d="m 31.977839,32.926334 c 0,1.721187 -1.395297,3.116485 -3.116484,3.116485 -1.721187,0 -3.116484,-1.395298 -3.116484,-3.116485 0,-1.721186 1.395297,-3.116484 3.116484,-3.116484 1.721187,0 3.116484,1.395298 3.116484,3.116484 z" />
        <path
           transform="translate(-8.8752053,935.9683)"
           sodipodi:type="arc"
           style="fill:none;stroke:#000000;stroke-width:2;stroke-miterlimit:4;stroke-opacity:1;stroke-dasharray:none;stroke-dashoffset:0"
           id="path2987-1"
           sodipodi:cx="28.861355"
           sodipodi:cy="32.926334"
           sodipodi:rx="3.1164842"
           sodipodi:ry="3.1164842"
           d="m 31.977839,32.926334 c 0,1.721187 -1.395297,3.116485 -3.116484,3.116485 -1.721187,0 -3.116484,-1.395298 -3.116484,-3.116485 0,-1.721186 1.395297,-3.116484 3.116484,-3.116484 1.721187,0 3.116484,1.395298 3.116484,3.116484 z" />
      </g>
      <g
         transform="translate(0,-0.812985)"
         id="g3091">
        <path
           transform="translate(16.395417,927.56733)"
           sodipodi:type="arc"
           style="fill:none;stroke:#000000;stroke-width:2;stroke-miterlimit:4;stroke-opacity:1;stroke-dasharray:none;stroke-dashoffset:0"
           id="path2987-5"
           sodipodi:cx="28.861355"
           sodipodi:cy="32.926334"
           sodipodi:rx="3.1164842"
           sodipodi:ry="3.1164842"
           d="m 31.977839,32.926334 c 0,1.721187 -1.395297,3.116485 -3.116484,3.116485 -1.721187,0 -3.116484,-1.395298 -3.116484,-3.116485 0,-1.721186 1.395297,-3.116484 3.116484,-3.116484 1.721187,0 3.116484,1.395298 3.116484,3.116484 z" />
        <path
           transform="translate(16.395417,902.36446)"
           sodipodi:type="arc"
           style="fill:none;stroke:#000000;stroke-width:2;stroke-miterlimit:4;stroke-opacity:1;stroke-dasharray:none;stroke-dashoffset:0"
           id="path2987-52"
           sodipodi:cx="28.861355"
           sodipodi:cy="32.926334"
           sodipodi:rx="3.1164842"
           sodipodi:ry="3.1164842"
           d="m 31.977839,32.926334 c 0,1.721187 -1.395297,3.116485 -3.116484,3.116485 -1.721187,0 -3.116484,-1.395298 -3.116484,-3.116485 0,-1.721186 1.395297,-3.116484 3.116484,-3.116484 1.721187,0 3.116484,1.395298 3.116484,3.116484 z" />
      </g>
      <path
         d="m 31.977839,32.926334 c 0,1.721187 -1.395297,3.116485 -3.116484,3.116485 -1.721187,0 -3.116484,-1.395298 -3.116484,-3.116485 0,-1.721186 1.395297,-3.116484 3.116484,-3.116484 1.721187,0 3.116484,1.395298 3.116484,3.116484 z"
         sodipodi:ry="3.1164842"
         sodipodi:rx="3.1164842"
         sodipodi:cy="32.926334"
         sodipodi:cx="28.861355"
         id="path2987-0-9"
         style="fill:none;stroke:#000000;stroke-width:2;stroke-miterlimit:4;stroke-opacity:1;stroke-dasharray:none;stroke-dashoffset:0"
         sodipodi:type="arc"
         transform="translate(41.869288,914.15291)" />
      <path
         transform="translate(0,910.62992)"
         inkscape:connector-curvature="0"
         id="path3095"
         d="m 20.053899,18.156908 0,14.904925"
         style="fill:none;stroke:#000000;stroke-width:1px;stroke-linecap:butt;stroke-linejoin:miter;stroke-opacity:1" />
      <path
         sodipodi:nodetypes="cc"
         inkscape:connector-curvature="0"
         id="path3095-2"
         d="m 23.576881,948.97622 18.156908,8.94295"
         style="fill:none;stroke:#000000;stroke-width:1px;stroke-linecap:butt;stroke-linejoin:miter;stroke-opacity:1" />
      <path
         sodipodi:nodetypes="cc"
         inkscape:connector-curvature="0"
         id="path3095-2-4"
         d="m 45.392271,937.86528 0,17.34391"
         style="fill:none;stroke:#000000;stroke-width:1px;stroke-linecap:butt;stroke-linejoin:miter;stroke-opacity:1" />
      <path
         sodipodi:nodetypes="cc"
         inkscape:connector-curvature="0"
         id="path3095-2-4-0"
         d="m 48.237756,936.10379 18.698906,8.94296"
         style="fill:none;stroke:#000000;stroke-width:1px;stroke-linecap:butt;stroke-linejoin:miter;stroke-opacity:1" />
      <path
         sodipodi:nodetypes="cc"
         inkscape:connector-curvature="0"
         id="path3095-2-4-0-8"
         d="m 42.411286,936.23929 -19.7829,8.12996"
         style="fill:none;stroke:#000000;stroke-width:1px;stroke-linecap:butt;stroke-linejoin:miter;stroke-opacity:1" />
      <path
         sodipodi:nodetypes="cc"
         inkscape:connector-curvature="0"
         id="path3095-2-4-0-8-2"
         d="m 68.969152,949.38273 c 4.294629,14.21773 -29.065153,30.74573 -47.153762,21.13789"
         style="fill:none;stroke:#000000;stroke-width:1px;stroke-linecap:butt;stroke-linejoin:miter;stroke-opacity:1" />
    </g>
  </g>
</svg>
