<?xml version="1.0" encoding="UTF-8" standalone="no"?>
<!-- Created with Inkscape (http://www.inkscape.org/) -->

<svg
   xmlns:dc="http://purl.org/dc/elements/1.1/"
   xmlns:cc="http://creativecommons.org/ns#"
   xmlns:rdf="http://www.w3.org/1999/02/22-rdf-syntax-ns#"
   xmlns:svg="http://www.w3.org/2000/svg"
   xmlns="http://www.w3.org/2000/svg"
   xmlns:sodipodi="http://sodipodi.sourceforge.net/DTD/sodipodi-0.dtd"
   xmlns:inkscape="http://www.inkscape.org/namespaces/inkscape"
   width="187.28751"
   height="125.83718"
   id="svg4154"
   version="1.1"
   inkscape:version="0.48.5 r10040"
   sodipodi:docname="New document 11">
  <defs
     id="defs4156" />
  <sodipodi:namedview
     id="base"
     pagecolor="#ffffff"
     bordercolor="#666666"
     borderopacity="1.0"
     inkscape:pageopacity="0.0"
     inkscape:pageshadow="2"
     inkscape:zoom="2.8"
     inkscape:cx="162.16832"
     inkscape:cy="79.157754"
     inkscape:document-units="px"
     inkscape:current-layer="layer1"
     showgrid="false"
     fit-margin-top="0"
     fit-margin-left="0"
     fit-margin-right="0"
     fit-margin-bottom="0"
     inkscape:window-width="1366"
     inkscape:window-height="692"
     inkscape:window-x="0"
     inkscape:window-y="0"
     inkscape:window-maximized="1" />
  <metadata
     id="metadata4159">
    <rdf:RDF>
      <cc:Work
         rdf:about="">
        <dc:format>image/svg+xml</dc:format>
        <dc:type
           rdf:resource="http://purl.org/dc/dcmitype/StillImage" />
        <dc:title></dc:title>
      </cc:Work>
    </rdf:RDF>
  </metadata>
  <g
     inkscape:label="Layer 1"
     inkscape:groupmode="layer"
     id="layer1"
     transform="translate(-206.68125,-289.46875)">
    <path
       inkscape:connector-curvature="0"
       d="m 253.285,347.73593 0,23.3025"
       style="fill:none;stroke:#add8e6;stroke-width:6.99057484;stroke-linecap:butt;stroke-linejoin:miter;stroke-miterlimit:10;stroke-opacity:1;stroke-dasharray:none"
       id="path132" />
    <path
       inkscape:connector-curvature="0"
       d="m 218.3325,380.06718 34.66125,-9.02875"
       style="fill:none;stroke:#add8e6;stroke-width:6.99057484;stroke-linecap:butt;stroke-linejoin:miter;stroke-miterlimit:10;stroke-opacity:1;stroke-dasharray:none"
       id="path134" />
    <path
       inkscape:connector-curvature="0"
       d="m 218.04125,338.99843 35.24375,8.7375"
       style="fill:none;stroke:#add8e6;stroke-width:6.99057484;stroke-linecap:butt;stroke-linejoin:miter;stroke-miterlimit:10;stroke-opacity:1;stroke-dasharray:none"
       id="path136" />
    <path
       inkscape:connector-curvature="0"
       d="m 299.88875,312.78343 80.97499,-11.9425"
       style="fill:none;stroke:#ffc0cb;stroke-width:6.99057484;stroke-linecap:butt;stroke-linejoin:miter;stroke-miterlimit:10;stroke-opacity:1;stroke-dasharray:none"
       id="path138" />
    <path
       inkscape:connector-curvature="0"
       d="m 253.285,371.03843 34.6625,3.20375"
       style="fill:none;stroke:#ffc0cb;stroke-width:6.99057484;stroke-linecap:butt;stroke-linejoin:miter;stroke-miterlimit:10;stroke-opacity:1;stroke-dasharray:none"
       id="path140" />
    <path
       inkscape:connector-curvature="0"
       d="m 299.88875,336.08468 80.68374,11.65125"
       style="fill:none;stroke:#ffc0cb;stroke-width:6.99057484;stroke-linecap:butt;stroke-linejoin:miter;stroke-miterlimit:10;stroke-opacity:1;stroke-dasharray:none"
       id="path142" />
    <path
       inkscape:connector-curvature="0"
       d="m 384.64999,347.73593 c 0,2.2525 -1.82625,4.0775 -4.0775,4.0775 -2.2525,0 -4.07875,-1.825 -4.07875,-4.0775 0,-2.25125 1.82625,-4.0775 4.07875,-4.0775 2.25125,0 4.0775,1.82625 4.0775,4.0775"
       style="fill:#ffc0cb;fill-opacity:1;fill-rule:nonzero;stroke:none"
       id="path144" />
    <path
       inkscape:connector-curvature="0"
       d="m 384.64999,347.73593 c 0,2.2525 -1.82625,4.0775 -4.0775,4.0775 -2.2525,0 -4.07875,-1.825 -4.07875,-4.0775 0,-2.25125 1.82625,-4.0775 4.07875,-4.0775 2.25125,0 4.0775,1.82625 4.0775,4.0775 z"
       style="fill:none;stroke:#ff0000;stroke-width:1.16509497;stroke-linecap:butt;stroke-linejoin:miter;stroke-miterlimit:10;stroke-opacity:1;stroke-dasharray:none"
       id="path146" />
    <path
       inkscape:connector-curvature="0"
       d="m 387.00999,344.27468 2.40625,0 0,0.5775 -3.21,0 0,-0.5775 c 0.26,-0.26625 0.61625,-0.6225 1.06625,-1.07125 0.45125,-0.4475 0.73375,-0.73625 0.85,-0.86625 0.22,-0.2425 0.37375,-0.44875 0.46125,-0.6175 0.0863,-0.16875 0.13,-0.335 0.13,-0.4975 0,-0.26625 -0.095,-0.48375 -0.2875,-0.65125 -0.19125,-0.1675 -0.44125,-0.25125 -0.75,-0.25125 -0.21875,0 -0.44875,0.0325 -0.6925,0.0962 -0.24125,0.0637 -0.50125,0.16 -0.7775,0.29 l 0,-0.67625 c 0.27875,-0.0962 0.53875,-0.16875 0.78125,-0.21625 0.24125,-0.0487 0.46375,-0.0725 0.66375,-0.0725 0.52875,0 0.95,0.13 1.265,0.39 0.315,0.26 0.47375,0.60625 0.47375,1.04 0,0.20625 -0.04,0.40125 -0.12,0.58625 -0.0775,0.185 -0.22,0.4025 -0.42625,0.65375 -0.0575,0.065 -0.24,0.2525 -0.545,0.5625 -0.305,0.31 -0.73375,0.7425 -1.28875,1.30125"
       style="fill:#000000;fill-opacity:1;fill-rule:nonzero;stroke:none"
       id="path148" />
    <path
       inkscape:connector-curvature="0"
       d="m 384.94124,300.84093 c 0,2.2525 -1.82625,4.0775 -4.0775,4.0775 -2.2525,0 -4.07875,-1.825 -4.07875,-4.0775 0,-2.25125 1.82625,-4.0775 4.07875,-4.0775 2.25125,0 4.0775,1.82625 4.0775,4.0775"
       style="fill:#ffc0cb;fill-opacity:1;fill-rule:nonzero;stroke:none"
       id="path150" />
    <path
       inkscape:connector-curvature="0"
       d="m 384.94124,300.84093 c 0,2.2525 -1.82625,4.0775 -4.0775,4.0775 -2.2525,0 -4.07875,-1.825 -4.07875,-4.0775 0,-2.25125 1.82625,-4.0775 4.07875,-4.0775 2.25125,0 4.0775,1.82625 4.0775,4.0775 z"
       style="fill:none;stroke:#ff0000;stroke-width:1.16509497;stroke-linecap:butt;stroke-linejoin:miter;stroke-miterlimit:10;stroke-opacity:1;stroke-dasharray:none"
       id="path152" />
    <path
       inkscape:connector-curvature="0"
       d="m 386.88374,297.37843 1.1575,0 0,-3.8575 -1.25375,0.28875 0,-0.57875 1.2325,-0.28875 0.69625,0 0,4.43625 1.1575,0 0,0.57875 -2.99,0 0,-0.57875"
       style="fill:#000000;fill-opacity:1;fill-rule:nonzero;stroke:none"
       id="path154" />
    <path
       inkscape:connector-curvature="0"
       d="m 222.11875,338.99843 c 0,2.25125 -1.825,4.0775 -4.0775,4.0775 -2.2525,0 -4.0775,-1.82625 -4.0775,-4.0775 0,-2.2525 1.825,-4.07875 4.0775,-4.07875 2.2525,0 4.0775,1.82625 4.0775,4.07875"
       style="fill:#add8e6;fill-opacity:1;fill-rule:nonzero;stroke:none"
       id="path156" />
    <path
       inkscape:connector-curvature="0"
       d="m 222.11875,338.99843 c 0,2.25125 -1.825,4.0775 -4.0775,4.0775 -2.2525,0 -4.0775,-1.82625 -4.0775,-4.0775 0,-2.2525 1.825,-4.07875 4.0775,-4.07875 2.2525,0 4.0775,1.82625 4.0775,4.07875 z"
       style="fill:none;stroke:#1e90ff;stroke-width:1.16509497;stroke-linecap:butt;stroke-linejoin:miter;stroke-miterlimit:10;stroke-opacity:1;stroke-dasharray:none"
       id="path158" />
    <path
       inkscape:connector-curvature="0"
       d="m 212.44375,333.37968 2.40625,0 0,0.57875 -3.21,0 0,-0.57875 c 0.26,-0.265 0.61625,-0.62125 1.06625,-1.07 0.45125,-0.4475 0.73375,-0.73625 0.85,-0.86625 0.22,-0.2425 0.37375,-0.44875 0.46125,-0.6175 0.0875,-0.16875 0.13,-0.335 0.13,-0.4975 0,-0.26625 -0.095,-0.48375 -0.2875,-0.65125 -0.19125,-0.1675 -0.44125,-0.25125 -0.75,-0.25125 -0.21875,0 -0.44875,0.0325 -0.6925,0.0962 -0.24125,0.0638 -0.50125,0.16 -0.7775,0.28875 l 0,-0.675 c 0.27875,-0.0962 0.53875,-0.16875 0.78125,-0.21625 0.24125,-0.0488 0.46375,-0.0725 0.66375,-0.0725 0.52875,0 0.95,0.13 1.265,0.39 0.315,0.25875 0.47375,0.60625 0.47375,1.04 0,0.20625 -0.04,0.40125 -0.12,0.58625 -0.0775,0.185 -0.22,0.4025 -0.42625,0.65375 -0.0575,0.065 -0.24,0.2525 -0.545,0.5625 -0.305,0.31 -0.73375,0.7425 -1.28875,1.3"
       style="fill:#000000;fill-opacity:1;fill-rule:nonzero;stroke:none"
       id="path160" />
    <path
       inkscape:connector-curvature="0"
       d="m 211.1575,327.55093 4.07875,0.29125"
       style="fill:none;stroke:#000000;stroke-width:0.58254749;stroke-linecap:butt;stroke-linejoin:miter;stroke-miterlimit:10;stroke-opacity:1;stroke-dasharray:none"
       id="path162" />
    <path
       inkscape:connector-curvature="0"
       d="m 222.41,380.06718 c 0,2.2525 -1.825,4.07875 -4.0775,4.07875 -2.2525,0 -4.0775,-1.82625 -4.0775,-4.07875 0,-2.25125 1.825,-4.0775 4.0775,-4.0775 2.2525,0 4.0775,1.82625 4.0775,4.0775"
       style="fill:#add8e6;fill-opacity:1;fill-rule:nonzero;stroke:none"
       id="path164" />
    <path
       inkscape:connector-curvature="0"
       d="m 222.41,380.06718 c 0,2.2525 -1.825,4.07875 -4.0775,4.07875 -2.2525,0 -4.0775,-1.82625 -4.0775,-4.07875 0,-2.25125 1.825,-4.0775 4.0775,-4.0775 2.2525,0 4.0775,1.82625 4.0775,4.0775 z"
       style="fill:none;stroke:#1e90ff;stroke-width:1.16509497;stroke-linecap:butt;stroke-linejoin:miter;stroke-miterlimit:10;stroke-opacity:1;stroke-dasharray:none"
       id="path166" />
    <path
       inkscape:connector-curvature="0"
       d="m 214.49,372.59468 c 0.3475,0.07 0.61875,0.215 0.815,0.43625 0.19625,0.22125 0.29375,0.49375 0.29375,0.8175 0,0.5 -0.17375,0.88625 -0.5225,1.16 -0.3475,0.27125 -0.8425,0.4075 -1.48375,0.4075 -0.215,0 -0.43625,-0.0238 -0.66375,-0.0725 -0.2275,-0.0475 -0.4625,-0.12 -0.70625,-0.21625 l 0,-0.675 c 0.19375,0.12625 0.405,0.2225 0.635,0.2875 0.23125,0.065 0.47125,0.0975 0.72125,0.0975 0.43875,0 0.7725,-0.0838 1.00125,-0.25125 0.22875,-0.16875 0.34375,-0.41375 0.34375,-0.73375 0,-0.295 -0.11125,-0.52625 -0.33125,-0.69375 -0.22,-0.16625 -0.52625,-0.25 -0.91875,-0.25 l -0.5825,0 0,-0.57875 0.61,0 c 0.3325,0 0.5875,-0.065 0.76375,-0.19625 0.1775,-0.13 0.26625,-0.3175 0.26625,-0.56375 0,-0.25125 -0.0925,-0.445 -0.275,-0.58 -0.18125,-0.135 -0.4425,-0.2025 -0.7825,-0.2025 -0.18,0 -0.3725,0.015 -0.57875,0.0463 -0.205,0.0312 -0.4325,0.08 -0.67875,0.14625 l 0,-0.57875 c 0.25375,-0.065 0.49125,-0.1125 0.7125,-0.145 0.2225,-0.0325 0.43125,-0.0475 0.62875,-0.0475 0.5075,0 0.90875,0.11625 1.20375,0.34875 0.29625,0.2325 0.445,0.54625 0.445,0.9425 0,0.27625 -0.08,0.50875 -0.23875,0.69875 -0.15875,0.19 -0.385,0.3225 -0.6775,0.39625"
       style="fill:#000000;fill-opacity:1;fill-rule:nonzero;stroke:none"
       id="path168" />
    <path
       inkscape:connector-curvature="0"
       d="m 211.74,368.91218 4.07875,0.29125"
       style="fill:none;stroke:#000000;stroke-width:0.58254749;stroke-linecap:butt;stroke-linejoin:miter;stroke-miterlimit:10;stroke-opacity:1;stroke-dasharray:none"
       id="path170" />
    <path
       inkscape:connector-curvature="0"
       d="m 292.025,374.24218 c 0,2.2525 -1.82625,4.0775 -4.0775,4.0775 -2.2525,0 -4.07875,-1.825 -4.07875,-4.0775 0,-2.2525 1.82625,-4.0775 4.07875,-4.0775 2.25125,0 4.0775,1.825 4.0775,4.0775"
       style="fill:#ffc0cb;fill-opacity:1;fill-rule:nonzero;stroke:none"
       id="path172" />
    <path
       inkscape:connector-curvature="0"
       d="m 292.025,374.24218 c 0,2.2525 -1.82625,4.0775 -4.0775,4.0775 -2.2525,0 -4.07875,-1.825 -4.07875,-4.0775 0,-2.2525 1.82625,-4.0775 4.07875,-4.0775 2.25125,0 4.0775,1.825 4.0775,4.0775 z"
       style="fill:none;stroke:#ff0000;stroke-width:1.16509497;stroke-linecap:butt;stroke-linejoin:miter;stroke-miterlimit:10;stroke-opacity:1;stroke-dasharray:none"
       id="path174" />
    <path
       inkscape:connector-curvature="0"
       d="m 295.84875,368.63343 c 0.3475,0.07 0.61875,0.215 0.815,0.43625 0.19625,0.22125 0.29375,0.49375 0.29375,0.81875 0,0.49875 -0.175,0.885 -0.5225,1.15875 -0.34875,0.27125 -0.8425,0.4075 -1.48375,0.4075 -0.215,0 -0.43625,-0.0238 -0.665,-0.0725 -0.22625,-0.0475 -0.46125,-0.12 -0.705,-0.21625 l 0,-0.675 c 0.1925,0.12625 0.405,0.2225 0.635,0.2875 0.23125,0.065 0.47125,0.0975 0.72125,0.0975 0.43875,0 0.7725,-0.0838 1.00125,-0.25125 0.22875,-0.16875 0.34375,-0.41375 0.34375,-0.73375 0,-0.295 -0.11125,-0.52625 -0.3325,-0.69375 -0.22,-0.16625 -0.525,-0.25 -0.9175,-0.25 l -0.5825,0 0,-0.57875 0.61,0 c 0.3325,0 0.5875,-0.065 0.76375,-0.19625 0.1775,-0.13 0.265,-0.3175 0.265,-0.5625 0,-0.2525 -0.0913,-0.44625 -0.27375,-0.58125 -0.18125,-0.135 -0.4425,-0.2025 -0.7825,-0.2025 -0.18,0 -0.3725,0.015 -0.57875,0.0462 -0.205,0.0312 -0.4325,0.08 -0.67875,0.14625 l 0,-0.57875 c 0.25375,-0.065 0.49125,-0.1125 0.7125,-0.145 0.22125,-0.0325 0.43125,-0.0475 0.62875,-0.0475 0.50625,0 0.90875,0.11625 1.20375,0.34875 0.29625,0.2325 0.445,0.54625 0.445,0.9425 0,0.27625 -0.08,0.50875 -0.23875,0.69875 -0.15875,0.19 -0.385,0.3225 -0.6775,0.39625"
       style="fill:#000000;fill-opacity:1;fill-rule:nonzero;stroke:none"
       id="path176" />
    <path
       inkscape:connector-curvature="0"
       d="m 217.45875,302.58843 82.43,10.195"
       style="fill:none;stroke:#ffc0cb;stroke-width:6.99057484;stroke-linecap:butt;stroke-linejoin:miter;stroke-miterlimit:10;stroke-opacity:1;stroke-dasharray:none"
       id="path178" />
    <path
       inkscape:connector-curvature="0"
       d="m 299.88875,312.78343 0,23.30125"
       style="fill:none;stroke:#ffc0cb;stroke-width:6.99057484;stroke-linecap:butt;stroke-linejoin:miter;stroke-miterlimit:10;stroke-opacity:1;stroke-dasharray:none"
       id="path180" />
    <path
       inkscape:connector-curvature="0"
       d="m 253.285,347.73593 46.60375,-11.65125"
       style="fill:none;stroke:#add8e6;stroke-width:6.99057484;stroke-linecap:butt;stroke-linejoin:miter;stroke-miterlimit:10;stroke-opacity:1;stroke-dasharray:none"
       id="path182" />
    <path
       inkscape:connector-curvature="0"
       d="m 381.44624,289.48093 0,116.51"
       style="fill:none;stroke:#000000;stroke-width:0.1165095;stroke-linecap:butt;stroke-linejoin:miter;stroke-miterlimit:10;stroke-opacity:1;stroke-dasharray:none"
       id="path184" />
    <path
       inkscape:connector-curvature="0"
       d="m 330.73749,409.61468 0,1.06125 1.25375,0 0,0.4825 -1.25375,0 0,2.0675 c 0,0.31125 0.0412,0.51 0.12375,0.59875 0.0825,0.0875 0.25125,0.13125 0.5025,0.13125 l 0.6275,0 0,0.4825 -0.6275,0 c -0.45625,0 -0.7725,-0.0875 -0.94625,-0.26125 -0.1725,-0.175 -0.25875,-0.49125 -0.25875,-0.95125 l 0,-2.0675 -0.4825,0 0,-0.4825 0.4825,0 0,-1.06125 0.57875,0"
       style="fill:#000000;fill-opacity:1;fill-rule:nonzero;stroke:none"
       id="path186" />
    <path
       inkscape:connector-curvature="0"
       d="m 335.28624,411.35093 4.34,0 0,0.57875 -4.34,0 0,-0.57875 m 0,1.35125 4.34,0 0,0.57875 -4.34,0 0,-0.57875"
       style="fill:#000000;fill-opacity:1;fill-rule:nonzero;stroke:none"
       id="path188" />
    <path
       inkscape:connector-curvature="0"
       d="m 345.05124,412.50843 c -0.52125,0 -0.8825,0.0613 -1.08375,0.18125 -0.20125,0.12 -0.30125,0.32375 -0.30125,0.6125 0,0.23 0.075,0.4125 0.22625,0.5475 0.15,0.135 0.355,0.2025 0.615,0.2025 0.3575,0 0.64375,-0.1275 0.86,-0.3825 0.21625,-0.25625 0.32375,-0.59625 0.32375,-1.02125 l 0,-0.14 -0.64,0 m 1.21875,-0.25375 0,2.18375 -0.57875,0 0,-0.57875 c -0.1425,0.23125 -0.32125,0.40125 -0.53625,0.51 -0.21375,0.11 -0.475,0.165 -0.785,0.165 -0.39125,0 -0.70375,-0.11 -0.93625,-0.32875 -0.23125,-0.21875 -0.34625,-0.5125 -0.34625,-0.88125 0,-0.43 0.1425,-0.7525 0.42625,-0.97125 0.285,-0.2175 0.70875,-0.32625 1.27375,-0.32625 l 0.90375,0 0,-0.0625 c 0,-0.2875 -0.0937,-0.50875 -0.2825,-0.66625 -0.18875,-0.1575 -0.455,-0.23625 -0.79875,-0.23625 -0.21875,0 -0.43125,0.0238 -0.6375,0.0725 -0.20625,0.0475 -0.405,0.12 -0.595,0.21625 l 0,-0.57875 c 0.225,-0.0637 0.445,-0.1125 0.65625,-0.14375 0.2125,-0.0325 0.41875,-0.0487 0.62,-0.0487 0.5425,0 0.9475,0.13875 1.21375,0.41625 0.26875,0.27625 0.4025,0.695 0.4025,1.25875"
       style="fill:#000000;fill-opacity:1;fill-rule:nonzero;stroke:none"
       id="path190" />
    <path
       inkscape:connector-curvature="0"
       d="m 350.32124,410.00093 0,1.92875 1.92875,0 0,0.57875 -1.92875,0 0,1.93 -0.57875,0 0,-1.93 -1.92875,0 0,-0.57875 1.92875,0 0,-1.92875 0.57875,0"
       style="fill:#000000;fill-opacity:1;fill-rule:nonzero;stroke:none"
       id="path192" />
    <path
       inkscape:connector-curvature="0"
       d="m 355.08249,409.13343 c -0.29375,0.51875 -0.5125,1.0325 -0.655,1.54 -0.1425,0.5075 -0.2125,1.02125 -0.2125,1.5425 0,0.52125 0.0712,1.0375 0.215,1.54875 0.14375,0.51 0.36125,1.02375 0.6525,1.54125 l -0.52625,0 c -0.34,-0.53 -0.595,-1.05125 -0.76375,-1.56375 -0.16875,-0.5125 -0.2525,-1.02125 -0.2525,-1.52625 0,-0.5025 0.0837,-1.00875 0.25125,-1.51875 0.1675,-0.51 0.4225,-1.03125 0.765,-1.56375 l 0.52625,0"
       style="fill:#000000;fill-opacity:1;fill-rule:nonzero;stroke:none"
       id="path194" />
    <path
       inkscape:connector-curvature="0"
       d="m 358.07249,412.50843 c -0.52125,0 -0.8825,0.0613 -1.08375,0.18125 -0.20125,0.12 -0.30125,0.32375 -0.30125,0.6125 0,0.23 0.075,0.4125 0.22625,0.5475 0.15,0.135 0.355,0.2025 0.615,0.2025 0.3575,0 0.64375,-0.1275 0.86,-0.3825 0.21625,-0.25625 0.32375,-0.59625 0.32375,-1.02125 l 0,-0.14 -0.64,0 m 1.21875,-0.25375 0,2.18375 -0.57875,0 0,-0.57875 c -0.1425,0.23125 -0.32125,0.40125 -0.53625,0.51 -0.21375,0.11 -0.475,0.165 -0.785,0.165 -0.3925,0 -0.70375,-0.11 -0.93625,-0.32875 -0.23125,-0.21875 -0.34625,-0.5125 -0.34625,-0.88125 0,-0.43 0.1425,-0.7525 0.42625,-0.97125 0.285,-0.2175 0.70875,-0.32625 1.27375,-0.32625 l 0.90375,0 0,-0.0625 c 0,-0.2875 -0.0937,-0.50875 -0.2825,-0.66625 -0.18875,-0.1575 -0.455,-0.23625 -0.79875,-0.23625 -0.21875,0 -0.43125,0.0238 -0.6375,0.0725 -0.20625,0.0475 -0.405,0.12 -0.59625,0.21625 l 0,-0.57875 c 0.22625,-0.0637 0.445,-0.1125 0.6575,-0.14375 0.2125,-0.0325 0.41875,-0.0487 0.62,-0.0487 0.5425,0 0.9475,0.13875 1.21375,0.41625 0.26875,0.27625 0.4025,0.695 0.4025,1.25875"
       style="fill:#000000;fill-opacity:1;fill-rule:nonzero;stroke:none"
       id="path196" />
    <path
       inkscape:connector-curvature="0"
       d="m 360.44874,412.79843 1.83262,0 0,-0.57874 -1.83262,0 0,0.57874 z"
       style="fill:#000000;fill-opacity:1;fill-rule:nonzero;stroke:none"
       id="path198" />
    <path
       inkscape:connector-curvature="0"
       d="m 366.00374,412.55593 c 0,-0.46625 -0.0937,-0.83125 -0.28375,-1.09625 -0.1875,-0.265 -0.44625,-0.3975 -0.7775,-0.3975 -0.32875,0 -0.58875,0.1325 -0.7775,0.3975 -0.18875,0.265 -0.28375,0.63 -0.28375,1.09625 0,0.46625 0.095,0.8325 0.28375,1.09875 0.18875,0.265 0.44875,0.3975 0.7775,0.3975 0.33125,0 0.59,-0.1325 0.7775,-0.3975 0.19,-0.26625 0.28375,-0.6325 0.28375,-1.09875 m -2.1225,-1.30125 c 0.1325,-0.22875 0.29875,-0.39875 0.50125,-0.50875 0.2025,-0.11125 0.44375,-0.16625 0.725,-0.16625 0.465,0 0.8425,0.1825 1.135,0.54625 0.29125,0.3625 0.43625,0.84 0.43625,1.43125 0,0.59125 -0.145,1.07 -0.43625,1.43375 -0.2925,0.3625 -0.67,0.54375 -1.135,0.54375 -0.28125,0 -0.5225,-0.055 -0.725,-0.16625 -0.2025,-0.11 -0.36875,-0.28 -0.50125,-0.50875 l 0,0.57875 -0.5775,0 0,-5.305 0.5775,0 0,2.12125"
       style="fill:#000000;fill-opacity:1;fill-rule:nonzero;stroke:none"
       id="path200" />
    <path
       inkscape:connector-curvature="0"
       d="m 367.74374,409.13343 0.52625,0 c 0.34125,0.5325 0.595,1.05375 0.765,1.56375 0.16875,0.51 0.2525,1.01625 0.2525,1.51875 0,0.505 -0.0837,1.01375 -0.2525,1.52625 -0.17,0.5125 -0.42375,1.03375 -0.765,1.56375 l -0.52625,0 c 0.2925,-0.5175 0.51,-1.03125 0.6525,-1.54125 0.14375,-0.51125 0.21625,-1.0275 0.21625,-1.54875 0,-0.52125 -0.0725,-1.035 -0.21625,-1.5425 -0.1425,-0.5075 -0.36,-1.02125 -0.6525,-1.54"
       style="fill:#000000;fill-opacity:1;fill-rule:nonzero;stroke:none"
       id="path202" />
    <path
       inkscape:connector-curvature="0"
       d="m 373.20749,410.00093 0,1.92875 1.92875,0 0,0.57875 -1.92875,0 0,1.93 -0.57875,0 0,-1.93 -1.93,0 0,-0.57875 1.93,0 0,-1.92875 0.57875,0"
       style="fill:#000000;fill-opacity:1;fill-rule:nonzero;stroke:none"
       id="path204" />
    <path
       inkscape:connector-curvature="0"
       d="m 379.22249,412.55593 c 0,-0.46625 -0.095,-0.83125 -0.28375,-1.09625 -0.1875,-0.265 -0.4475,-0.3975 -0.7775,-0.3975 -0.33,0 -0.58875,0.1325 -0.7775,0.3975 -0.18875,0.265 -0.28375,0.63 -0.28375,1.09625 0,0.46625 0.095,0.8325 0.28375,1.09875 0.18875,0.265 0.4475,0.3975 0.7775,0.3975 0.33,0 0.59,-0.1325 0.7775,-0.3975 0.18875,-0.26625 0.28375,-0.6325 0.28375,-1.09875 m -2.1225,-1.30125 c 0.13125,-0.22875 0.29875,-0.39875 0.5,-0.50875 0.20375,-0.11125 0.445,-0.16625 0.725,-0.16625 0.46625,0 0.84375,0.1825 1.135,0.54625 0.29125,0.3625 0.4375,0.84 0.4375,1.43125 0,0.59125 -0.14625,1.07 -0.4375,1.43375 -0.29125,0.3625 -0.66875,0.54375 -1.135,0.54375 -0.28,0 -0.52125,-0.055 -0.725,-0.16625 -0.20125,-0.11 -0.36875,-0.28 -0.5,-0.50875 l 0,0.57875 -0.57875,0 0,-5.305 0.57875,0 0,2.12125"
       style="fill:#000000;fill-opacity:1;fill-rule:nonzero;stroke:none"
       id="path206" />
    <path
       inkscape:connector-curvature="0"
       d="m 218.3325,338.99843 34.9525,8.7375 46.60375,-11.65125 81.55749,11.65125"
       style="fill:none;stroke:#000000;stroke-width:1.16509497;stroke-linecap:butt;stroke-linejoin:miter;stroke-miterlimit:10;stroke-opacity:1;stroke-dasharray:none"
       id="path208" />
    <path
       inkscape:connector-curvature="0"
       d="m 218.62375,302.58843 81.265,10.195 81.55749,-11.65125"
       style="fill:none;stroke:#000000;stroke-width:1.16509497;stroke-linecap:butt;stroke-linejoin:miter;stroke-miterlimit:10;stroke-opacity:1;stroke-dasharray:none"
       id="path210" />
    <path
       inkscape:connector-curvature="0"
       d="m 218.3325,380.06718 34.9525,-9.02875 128.16124,11.65"
       style="fill:none;stroke:#000000;stroke-width:1.16509497;stroke-linecap:butt;stroke-linejoin:miter;stroke-miterlimit:10;stroke-opacity:1;stroke-dasharray:none"
       id="path212" />
    <path
       inkscape:connector-curvature="0"
       d="m 253.285,371.03843 0,-23.3025"
       style="fill:none;stroke:#000000;stroke-width:1.16509497;stroke-linecap:butt;stroke-linejoin:miter;stroke-miterlimit:10;stroke-opacity:1;stroke-dasharray:2.3301875;stroke-dashoffset:0"
       id="path214" />
    <path
       inkscape:connector-curvature="0"
       d="m 299.88875,336.08468 0,-23.30125"
       style="fill:none;stroke:#000000;stroke-width:1.16509497;stroke-linecap:butt;stroke-linejoin:miter;stroke-miterlimit:10;stroke-opacity:1;stroke-dasharray:2.3301875;stroke-dashoffset:0"
       id="path216" />
    <path
       inkscape:connector-curvature="0"
       d="m 206.68125,405.99093 182.26874,0.28375"
       style="fill:none;stroke:#000000;stroke-width:0.58254749;stroke-linecap:butt;stroke-linejoin:miter;stroke-miterlimit:10;stroke-opacity:1;stroke-dasharray:none"
       id="path218" />
    <path
       inkscape:connector-curvature="0"
       d="m 393.31874,406.28093 -5.83,2.90375 1.46125,-2.91 -1.45125,-2.915"
       style="fill:#000000;fill-opacity:1;fill-rule:nonzero;stroke:none"
       id="path220" />
    <path
       inkscape:connector-curvature="0"
       d="m 393.31874,406.28093 -5.83,2.90375 1.46125,-2.91 -1.45125,-2.915 5.82,2.92125 z"
       style="fill:none;stroke:#000000;stroke-width:0.58254749;stroke-linecap:butt;stroke-linejoin:miter;stroke-miterlimit:10;stroke-opacity:1;stroke-dasharray:none"
       id="path222" />
    <path
       inkscape:connector-curvature="0"
       d="m 389.98124,395.05218 0,1.06 1.25375,0 0,0.4825 -1.25375,0 0,2.0675 c 0,0.31125 0.0412,0.51 0.12375,0.59875 0.0837,0.0875 0.25125,0.13125 0.50375,0.13125 l 0.62625,0 0,0.4825 -0.62625,0 c -0.4575,0 -0.7725,-0.0875 -0.94625,-0.26125 -0.17375,-0.175 -0.26,-0.49125 -0.26,-0.95125 l 0,-2.0675 -0.4825,0 0,-0.4825 0.4825,0 0,-1.06 0.57875,0"
       style="fill:#000000;fill-opacity:1;fill-rule:nonzero;stroke:none"
       id="path224" />
  </g>
</svg>
