<?xml version="1.0" encoding="UTF-8" standalone="no"?>
<!-- Created with Inkscape (http://www.inkscape.org/) -->

<svg
   xmlns:dc="http://purl.org/dc/elements/1.1/"
   xmlns:cc="http://creativecommons.org/ns#"
   xmlns:rdf="http://www.w3.org/1999/02/22-rdf-syntax-ns#"
   xmlns:svg="http://www.w3.org/2000/svg"
   xmlns="http://www.w3.org/2000/svg"
   xmlns:sodipodi="http://sodipodi.sourceforge.net/DTD/sodipodi-0.dtd"
   xmlns:inkscape="http://www.inkscape.org/namespaces/inkscape"
   width="187.21967"
   height="125.115"
   id="svg3806"
   version="1.1"
   inkscape:version="0.48.5 r10040"
   sodipodi:docname="Howard5a.svg">
  <defs
     id="defs3808" />
  <sodipodi:namedview
     id="base"
     pagecolor="#ffffff"
     bordercolor="#666666"
     borderopacity="1.0"
     inkscape:pageopacity="0.0"
     inkscape:pageshadow="2"
     inkscape:zoom="1.4"
     inkscape:cx="210.4545"
     inkscape:cy="30.89006"
     inkscape:document-units="px"
     inkscape:current-layer="layer1"
     showgrid="false"
     inkscape:window-width="1366"
     inkscape:window-height="692"
     inkscape:window-x="0"
     inkscape:window-y="0"
     inkscape:window-maximized="1"
     fit-margin-top="0"
     fit-margin-left="0"
     fit-margin-right="0"
     fit-margin-bottom="0" />
  <metadata
     id="metadata3811">
    <rdf:RDF>
      <cc:Work
         rdf:about="">
        <dc:format>image/svg+xml</dc:format>
        <dc:type
           rdf:resource="http://purl.org/dc/dcmitype/StillImage" />
        <dc:title></dc:title>
      </cc:Work>
    </rdf:RDF>
  </metadata>
  <g
     inkscape:label="Layer 1"
     inkscape:groupmode="layer"
     id="layer1"
     transform="translate(-466.39017,-335.51897)">
    <path
       inkscape:connector-curvature="0"
       d="m 478.04106,348.68772 81.75875,10.2225"
       style="fill:none;stroke:#ffc0cb;stroke-width:6.99057484;stroke-linecap:butt;stroke-linejoin:miter;stroke-miterlimit:10;stroke-opacity:1;stroke-dasharray:none"
       id="path16" />
    <path
       inkscape:connector-curvature="0"
       d="m 563.87856,358.91022 c 0,2.2525 -1.82625,4.07875 -4.07875,4.07875 -2.25125,0 -4.0775,-1.82625 -4.0775,-4.07875 0,-2.25125 1.82625,-4.0775 4.0775,-4.0775 2.2525,0 4.07875,1.82625 4.07875,4.0775"
       style="fill:#ffc0cb;fill-opacity:1;fill-rule:nonzero;stroke:none"
       id="path18" />
    <path
       inkscape:connector-curvature="0"
       d="m 563.87856,358.91022 c 0,2.2525 -1.82625,4.07875 -4.07875,4.07875 -2.25125,0 -4.0775,-1.82625 -4.0775,-4.07875 0,-2.25125 1.82625,-4.0775 4.0775,-4.0775 2.2525,0 4.07875,1.82625 4.07875,4.0775 z"
       style="fill:none;stroke:#ff0000;stroke-width:1.16509497;stroke-linecap:butt;stroke-linejoin:miter;stroke-miterlimit:10;stroke-opacity:1;stroke-dasharray:none"
       id="path20" />
    <path
       inkscape:connector-curvature="0"
       d="m 565.82106,355.44897 1.1575,0 0,-3.85875 -1.25375,0.29 0,-0.57875 1.2325,-0.29 0.69625,0 0,4.4375 1.1575,0 0,0.57875 -2.99,0 0,-0.57875"
       style="fill:#000000;fill-opacity:1;fill-rule:nonzero;stroke:none"
       id="path22" />
    <path
       inkscape:connector-curvature="0"
       d="m 559.88856,335.58147 0,116.50875"
       style="fill:none;stroke:#000000;stroke-width:0.1165095;stroke-linecap:butt;stroke-linejoin:miter;stroke-miterlimit:10;stroke-opacity:1;stroke-dasharray:none"
       id="path24" />
    <path
       inkscape:connector-curvature="0"
       d="m 559.68606,455.71522 0,1.06 1.255,0 0,0.4825 -1.255,0 0,2.0675 c 0,0.31125 0.0412,0.51 0.12375,0.59875 0.0838,0.0875 0.25125,0.13125 0.50375,0.13125 l 0.6275,0 0,0.4825 -0.6275,0 c -0.4575,0 -0.7725,-0.0875 -0.94625,-0.26125 -0.1725,-0.175 -0.26,-0.49125 -0.26,-0.95125 l 0,-2.0675 -0.48125,0 0,-0.4825 0.48125,0 0,-1.06 0.57875,0"
       style="fill:#000000;fill-opacity:1;fill-rule:nonzero;stroke:none"
       id="path26" />
    <path
       inkscape:connector-curvature="0"
       d="m 564.23481,457.45147 4.34125,0 0,0.57875 -4.34125,0 0,-0.57875 m 0,1.35 4.34125,0 0,0.57875 -4.34125,0 0,-0.57875"
       style="fill:#000000;fill-opacity:1;fill-rule:nonzero;stroke:none"
       id="path28" />
    <path
       inkscape:connector-curvature="0"
       d="m 574.00106,458.60772 c -0.5225,0 -0.88375,0.0613 -1.08375,0.18125 -0.20125,0.12 -0.30125,0.32375 -0.30125,0.6125 0,0.23 0.075,0.4125 0.225,0.54875 0.15125,0.13375 0.35625,0.20125 0.615,0.20125 0.35875,0 0.645,-0.1275 0.86125,-0.3825 0.21625,-0.25625 0.32375,-0.59625 0.32375,-1.02 l 0,-0.14125 -0.64,0 m 1.21875,-0.25375 0,2.18375 -0.57875,0 0,-0.57875 c -0.1425,0.23125 -0.32125,0.40125 -0.53625,0.51 -0.21375,0.11 -0.47625,0.165 -0.785,0.165 -0.3925,0 -0.70375,-0.11 -0.93625,-0.32875 -0.23125,-0.21875 -0.34625,-0.5125 -0.34625,-0.88125 0,-0.42875 0.14125,-0.7525 0.42625,-0.97125 0.28375,-0.2175 0.70875,-0.32625 1.27375,-0.32625 l 0.90375,0 0,-0.0625 c 0,-0.2875 -0.095,-0.50875 -0.28375,-0.66625 -0.18875,-0.1575 -0.455,-0.23625 -0.79875,-0.23625 -0.2175,0 -0.43,0.0238 -0.6375,0.0725 -0.205,0.0487 -0.40375,0.12 -0.595,0.2175 l 0,-0.57875 c 0.22625,-0.065 0.445,-0.1125 0.6575,-0.145 0.21125,-0.0325 0.41875,-0.0487 0.61875,-0.0487 0.5425,0 0.9475,0.13875 1.215,0.41625 0.26875,0.27625 0.4025,0.69625 0.4025,1.25875"
       style="fill:#000000;fill-opacity:1;fill-rule:nonzero;stroke:none"
       id="path30" />
    <path
       inkscape:connector-curvature="0"
       d="m 566.64731,379.27647 2.4075,0 0,0.5775 -3.21125,0 0,-0.5775 c 0.26125,-0.26625 0.61625,-0.6225 1.06625,-1.07125 0.45125,-0.4475 0.73375,-0.73625 0.85,-0.86625 0.22,-0.2425 0.37375,-0.44875 0.46125,-0.6175 0.0875,-0.16875 0.13125,-0.335 0.13125,-0.4975 0,-0.26625 -0.0962,-0.48375 -0.28875,-0.65125 -0.19125,-0.1675 -0.44125,-0.25125 -0.75,-0.25125 -0.2175,0 -0.44875,0.0325 -0.69125,0.0962 -0.2425,0.0638 -0.50125,0.16 -0.77875,0.28875 l 0,-0.675 c 0.27875,-0.0962 0.53875,-0.16875 0.78125,-0.21625 0.2425,-0.0487 0.46375,-0.0725 0.665,-0.0725 0.5275,0 0.95,0.13 1.26375,0.39 0.31625,0.25875 0.47375,0.60625 0.47375,1.04 0,0.20625 -0.04,0.40125 -0.11875,0.58625 -0.0787,0.185 -0.22125,0.4025 -0.4275,0.65375 -0.0575,0.065 -0.24,0.2525 -0.545,0.5625 -0.305,0.31 -0.73375,0.7425 -1.28875,1.30125"
       style="fill:#7f7f7f;fill-opacity:1;fill-rule:nonzero;stroke:none"
       id="path32" />
    <path
       inkscape:connector-curvature="0"
       d="m 568.11106,415.28647 c 0.3475,0.07 0.61875,0.215 0.815,0.43625 0.19625,0.22 0.29375,0.49375 0.29375,0.8175 0,0.5 -0.17375,0.88625 -0.5225,1.15875 -0.3475,0.2725 -0.8425,0.40875 -1.48375,0.40875 -0.215,0 -0.43625,-0.0237 -0.66375,-0.0725 -0.2275,-0.0475 -0.4625,-0.12 -0.70625,-0.21625 l 0,-0.67625 c 0.19375,0.1275 0.405,0.22375 0.635,0.28875 0.23125,0.065 0.47125,0.0975 0.7225,0.0975 0.4375,0 0.77125,-0.0838 1,-0.25125 0.22875,-0.16875 0.34375,-0.41375 0.34375,-0.73375 0,-0.29625 -0.11,-0.5275 -0.33125,-0.69375 -0.22,-0.16625 -0.52625,-0.25 -0.9175,-0.25 l -0.58375,0 0,-0.57875 0.61,0 c 0.3325,0 0.5875,-0.065 0.76375,-0.19625 0.1775,-0.13 0.26625,-0.31875 0.26625,-0.56375 0,-0.25125 -0.0912,-0.445 -0.275,-0.58 -0.18125,-0.135 -0.4425,-0.20375 -0.78125,-0.20375 -0.18,0 -0.37375,0.0163 -0.57875,0.0475 -0.20625,0.0312 -0.4325,0.08 -0.68,0.14625 l 0,-0.57875 c 0.25375,-0.065 0.49125,-0.1125 0.7125,-0.145 0.2225,-0.0325 0.43125,-0.0487 0.62875,-0.0487 0.5075,0 0.90875,0.1175 1.20375,0.35 0.29625,0.2325 0.445,0.54625 0.445,0.9425 0,0.27625 -0.08,0.50875 -0.23875,0.69875 -0.15875,0.19 -0.385,0.3225 -0.6775,0.39625"
       style="fill:#7f7f7f;fill-opacity:1;fill-rule:nonzero;stroke:none"
       id="path34" />
    <path
       inkscape:connector-curvature="0"
       d="m 478.33244,385.09772 34.95237,8.7375 46.60375,-11.65 81.5575,11.65"
       style="fill:none;stroke:#000000;stroke-width:1.16509497;stroke-linecap:butt;stroke-linejoin:miter;stroke-miterlimit:10;stroke-opacity:1;stroke-dasharray:none"
       id="path36" />
    <path
       inkscape:connector-curvature="0"
       d="m 478.62369,348.68772 81.26487,10.195 81.5575,-11.65125"
       style="fill:none;stroke:#000000;stroke-width:1.16509497;stroke-linecap:butt;stroke-linejoin:miter;stroke-miterlimit:10;stroke-opacity:1;stroke-dasharray:none"
       id="path38" />
    <path
       inkscape:connector-curvature="0"
       d="m 478.33244,426.16647 34.95237,-9.02875 128.16125,11.65125"
       style="fill:none;stroke:#000000;stroke-width:1.16509497;stroke-linecap:butt;stroke-linejoin:miter;stroke-miterlimit:10;stroke-opacity:1;stroke-dasharray:none"
       id="path40" />
    <path
       inkscape:connector-curvature="0"
       d="m 513.28481,417.13772 0,-23.3025"
       style="fill:none;stroke:#000000;stroke-width:1.16509497;stroke-linecap:butt;stroke-linejoin:miter;stroke-miterlimit:10;stroke-opacity:1;stroke-dasharray:2.3301875;stroke-dashoffset:0"
       id="path42" />
    <path
       inkscape:connector-curvature="0"
       d="m 559.88856,382.18522 0,-23.3025"
       style="fill:none;stroke:#000000;stroke-width:1.16509497;stroke-linecap:butt;stroke-linejoin:miter;stroke-miterlimit:10;stroke-opacity:1;stroke-dasharray:2.3301875;stroke-dashoffset:0"
       id="path44" />
    <path
       inkscape:connector-curvature="0"
       d="m 466.68144,452.09022 182.26837,0.28375"
       style="fill:none;stroke:#000000;stroke-width:0.58254749;stroke-linecap:butt;stroke-linejoin:miter;stroke-miterlimit:10;stroke-opacity:1;stroke-dasharray:none"
       id="path46" />
    <path
       inkscape:connector-curvature="0"
       d="m 653.31856,452.38022 -5.83,2.90375 1.46125,-2.91 -1.45125,-2.915"
       style="fill:#000000;fill-opacity:1;fill-rule:nonzero;stroke:none"
       id="path48" />
    <path
       inkscape:connector-curvature="0"
       d="m 653.31856,452.38022 -5.83,2.90375 1.46125,-2.91 -1.45125,-2.915 5.82,2.92125 z"
       style="fill:none;stroke:#000000;stroke-width:0.58254749;stroke-linecap:butt;stroke-linejoin:miter;stroke-miterlimit:10;stroke-opacity:1;stroke-dasharray:none"
       id="path50" />
    <path
       inkscape:connector-curvature="0"
       d="m 649.98106,441.15147 0,1.06 1.25375,0 0,0.4825 -1.25375,0 0,2.0675 c 0,0.31125 0.0412,0.51 0.12375,0.59875 0.0837,0.0875 0.25125,0.13125 0.50375,0.13125 l 0.62625,0 0,0.4825 -0.62625,0 c -0.4575,0 -0.7725,-0.0875 -0.94625,-0.26125 -0.17375,-0.175 -0.26,-0.49125 -0.26,-0.95125 l 0,-2.0675 -0.4825,0 0,-0.4825 0.4825,0 0,-1.06 0.57875,0"
       style="fill:#000000;fill-opacity:1;fill-rule:nonzero;stroke:none"
       id="path52" />
  </g>
</svg>
